{
  "source": "C:\\Users\\Peter\\Desktop\\stuff\\MIUN\\quantitative_research\\video_compression\\videos\\BVI-HD\\BVI-HD_CDVL_videos\\ORIG\\CarpetCircleFast_1920x1080_60fps.mp4",
  "output": "C:\\Users\\Peter\\Desktop\\stuff\\MIUN\\quantitative_research\\video_compression\\compressed_videos\\BVI-HD\\hevc\\1.5\\CarpetCircleFast_1920x1080_60fps_hevc.mp4",
  "codec": "hevc",
  "ok": "Input #0, mov,mp4,m4a,3gp,3g2,mj2, from 'C:\\Users\\Peter\\Desktop\\stuff\\MIUN\\quantitative_research\\video_compression\\videos\\BVI-HD\\BVI-HD_CDVL_videos\\ORIG\\CarpetCircleFast_1920x1080_60fps.mp4':\n  Metadata:\n    major_brand     : isom\n    minor_version   : 512\n    compatible_brands: isomiso2avc1mp41\n    encoder         : Lavf54.28.101\n  Duration: 00:00:05.00, start: 0.000000, bitrate: 324759 kb/s\n  Stream #0:0[0x1](und): Video: h264 (High 4:4:4 Predictive) (avc1 / 0x31637661), yuv420p(progressive), 1920x1080, 324754 kb/s, 60 fps, 60 tbr, 60 tbn (default)\n    Metadata:\n      handler_name    : VideoHandler\n      vendor_id       : [0][0][0][0]\n[out#0/mp4 @ 0000022f25edab40] Codec AVOption b:a (set bitrate (in bits/s)) has not been used for any stream. The most likely reason is either wrong type (e.g. a video option with no video streams) or that it is a private option of some decoder which was not actually used for any stream.\nStream mapping:\n  Stream #0:0 -> #0:0 (h264 (native) -> hevc (libx265))\nPress [q] to stop, [?] for help\n[libx265 @ 0000022f2689d300] Unknown option: \"aq-mode.\nx265 [info]: HEVC encoder version 4.1+190-8f11c33ac\nx265 [info]: build info [Windows][GCC 15.1.0][64 bit] 10bit\nx265 [info]: using cpu capabilities: MMX2 SSE2Fast LZCNT SSSE3 SSE4.2 AVX FMA3 BMI2 AVX2\nx265 [info]: Main 10 profile, Level-4.1 (Main tier)\nx265 [info]: Thread pool created using 12 threads\nx265 [info]: Slices                              : 1\nx265 [info]: frame threads / pool features       : 3 / wpp(17 rows)\nx265 [info]: Coding QT: max CU size, min CU size : 64 / 8\nx265 [info]: Residual QT: max TU size, max depth : 32 / 1 inter / 1 intra\nx265 [info]: ME / range / subpel / merge         : star / 57 / 3 / 3\nx265 [info]: Keyframe min / max / scenecut / bias  : 25 / 250 / 40 / 5.00 \nx265 [info]: Lookahead / bframes / badapt        : 25 / 4 / 2\nx265 [info]: b-pyramid / weightp / weightb       : 1 / 1 / 0\nx265 [info]: References / ref-limit  cu / depth  : 4 / on / on\nx265 [info]: AQ: mode / str / qg-size / cu-tree  : 2 / 1.0 / 32 / 1\nx265 [info]: Rate Control / qCompress            : ABR-1500 kbps / 0.60\nx265 [info]: VBV/HRD buffer / max-rate / init    : 1500 / 1500 / 0.750\nx265 [info]: tools: rect limit-modes rd=4 psy-rd=2.00 rdoq=2 psy-rdoq=1.00\nx265 [info]: tools: rskip mode=1 signhide tmvp strong-intra-smoothing lslices=4\nx265 [info]: tools: deblock sao dhdr10-info\nOutput #0, mp4, to 'C:\\Users\\Peter\\Desktop\\stuff\\MIUN\\quantitative_research\\video_compression\\compressed_videos\\BVI-HD\\hevc\\1.5\\CarpetCircleFast_1920x1080_60fps_hevc.mp4':\n  Metadata:\n    major_brand     : isom\n    minor_version   : 512\n    compatible_brands: isomiso2avc1mp41\n    encoder         : Lavf62.3.100\n  Stream #0:0(und): Video: hevc (hev1 / 0x31766568), yuv420p10le(tv, progressive), 1920x1080, q=2-31, 1500 kb/s, 60 fps, 15360 tbn (default)\n    Metadata:\n      encoder         : Lavc62.11.100 libx265\n      handler_name    : VideoHandler\n      vendor_id       : [0][0][0][0]\n    Side data:\n      cpb: bitrate max/min/avg: 1500000/0/1500000 buffer size: 1500000 vbv_delay: N/A\nframe=    0 fps=0.0 q=0.0 size=       0KiB time=N/A bitrate=N/A speed=N/A elapsed=0:00:00.50    \nframe=    0 fps=0.0 q=0.0 size=       0KiB time=N/A bitrate=N/A speed=N/A elapsed=0:00:01.03    \nframe=    0 fps=0.0 q=0.0 size=       0KiB time=N/A bitrate=N/A speed=N/A elapsed=0:00:01.54    \nframe=    0 fps=0.0 q=0.0 size=       0KiB time=N/A bitrate=N/A speed=N/A elapsed=0:00:02.06    \nframe=    0 fps=0.0 q=0.0 size=       0KiB time=N/A bitrate=N/A speed=N/A elapsed=0:00:02.57    \nframe=    0 fps=0.0 q=0.0 size=       0KiB time=N/A bitrate=N/A speed=N/A elapsed=0:00:03.08    \nframe=    0 fps=0.0 q=0.0 size=       0KiB time=N/A bitrate=N/A speed=N/A elapsed=0:00:03.60    \nframe=    0 fps=0.0 q=0.0 size=       0KiB time=N/A bitrate=N/A speed=N/A elapsed=0:00:04.12    \nframe=    0 fps=0.0 q=0.0 size=       0KiB time=N/A bitrate=N/A speed=N/A elapsed=0:00:04.63    \nframe=    1 fps=0.2 q=41.8 size=       0KiB time=-00:00:00.01 bitrate=N/A speed=N/A elapsed=0:00:05.15    \nframe=    3 fps=0.5 q=49.4 size=       0KiB time=00:00:00.01 bitrate=  21.1kbits/s speed=0.00294x elapsed=0:00:05.67    \nframe=    3 fps=0.5 q=49.4 size=       0KiB time=00:00:00.01 bitrate=  21.1kbits/s speed=0.0027x elapsed=0:00:06.18    \nframe=    4 fps=0.6 q=51.0 size=       0KiB time=00:00:00.03 bitrate=  10.6kbits/s speed=0.00497x elapsed=0:00:06.70    \nframe=    4 fps=0.6 q=51.0 size=       0KiB time=00:00:00.03 bitrate=  10.6kbits/s speed=0.00462x elapsed=0:00:07.22    \nframe=    5 fps=0.6 q=48.0 size=       0KiB time=00:00:00.05 bitrate=   7.0kbits/s speed=0.00647x elapsed=0:00:07.72    \nframe=    6 fps=0.7 q=40.6 size=       0KiB time=00:00:00.06 bitrate=   5.3kbits/s speed=0.00809x elapsed=0:00:08.23    \nframe=    7 fps=0.8 q=40.7 size=       0KiB time=00:00:00.08 bitrate=   4.2kbits/s speed=0.00952x elapsed=0:00:08.75    \nframe=    7 fps=0.8 q=40.7 size=       0KiB time=00:00:00.08 bitrate=   4.2kbits/s speed=0.00898x elapsed=0:00:09.27    \nframe=    7 fps=0.7 q=40.7 size=       0KiB time=00:00:00.08 bitrate=   4.2kbits/s speed=0.0085x elapsed=0:00:09.80    \nframe=    8 fps=0.8 q=41.4 size=       0KiB time=00:00:00.10 bitrate=   3.5kbits/s speed=0.00971x elapsed=0:00:10.30    \nframe=    9 fps=0.8 q=39.9 size=       0KiB time=00:00:00.11 bitrate=   3.0kbits/s speed=0.0108x elapsed=0:00:10.82    \nframe=   10 fps=0.9 q=35.4 size=       0KiB time=00:00:00.13 bitrate=   2.6kbits/s speed=0.0118x elapsed=0:00:11.34    \nframe=   11 fps=0.9 q=39.8 size=       0KiB time=00:00:00.15 bitrate=   2.3kbits/s speed=0.0127x elapsed=0:00:11.85    \nframe=   12 fps=1.0 q=39.2 size=       0KiB time=00:00:00.16 bitrate=   2.1kbits/s speed=0.0135x elapsed=0:00:12.37    \nframe=   12 fps=0.9 q=39.2 size=       0KiB time=00:00:00.16 bitrate=   2.1kbits/s speed=0.0129x elapsed=0:00:12.87    \nframe=   13 fps=1.0 q=41.7 size=       0KiB time=00:00:00.18 bitrate=   1.9kbits/s speed=0.0137x elapsed=0:00:13.40    \nframe=   14 fps=1.0 q=41.0 size=       0KiB time=00:00:00.20 bitrate=   1.8kbits/s speed=0.0144x elapsed=0:00:13.92    \nframe=   16 fps=1.1 q=40.4 size=       0KiB time=00:00:00.23 bitrate=   1.5kbits/s speed=0.0162x elapsed=0:00:14.42    \nframe=   16 fps=1.1 q=40.4 size=       0KiB time=00:00:00.23 bitrate=   1.5kbits/s speed=0.0156x elapsed=0:00:14.94    \nframe=   16 fps=1.0 q=40.4 size=       0KiB time=00:00:00.23 bitrate=   1.5kbits/s speed=0.0151x elapsed=0:00:15.46    \nframe=   18 fps=1.1 q=38.9 size=       0KiB time=00:00:00.26 bitrate=   1.3kbits/s speed=0.0167x elapsed=0:00:15.98    \nframe=   19 fps=1.2 q=33.7 size=       0KiB time=00:00:00.28 bitrate=   1.2kbits/s speed=0.0172x elapsed=0:00:16.50    \nframe=   19 fps=1.1 q=33.7 size=       0KiB time=00:00:00.28 bitrate=   1.2kbits/s speed=0.0166x elapsed=0:00:17.02    \nframe=   20 fps=1.1 q=38.6 size=       0KiB time=00:00:00.30 bitrate=   1.2kbits/s speed=0.0171x elapsed=0:00:17.55    \nframe=   21 fps=1.2 q=38.2 size=       0KiB time=00:00:00.31 bitrate=   1.1kbits/s speed=0.0175x elapsed=0:00:18.07    \nframe=   22 fps=1.2 q=32.9 size=       0KiB time=00:00:00.33 bitrate=   1.1kbits/s speed=0.0179x elapsed=0:00:18.59    \nframe=   22 fps=1.1 q=32.9 size=       0KiB time=00:00:00.33 bitrate=   1.1kbits/s speed=0.0174x elapsed=0:00:19.16    \nframe=   22 fps=1.1 q=32.9 size=       0KiB time=00:00:00.33 bitrate=   1.1kbits/s speed=0.0169x elapsed=0:00:19.68    \nframe=   22 fps=1.1 q=32.9 size=       0KiB time=00:00:00.33 bitrate=   1.1kbits/s speed=0.0165x elapsed=0:00:20.20    \nframe=   22 fps=1.1 q=32.9 size=       0KiB time=00:00:00.33 bitrate=   1.1kbits/s speed=0.0161x elapsed=0:00:20.71    \nframe=   23 fps=1.1 q=38.0 size=       0KiB time=00:00:00.35 bitrate=   1.0kbits/s speed=0.0165x elapsed=0:00:21.25    \nframe=   23 fps=1.1 q=38.0 size=       0KiB time=00:00:00.35 bitrate=   1.0kbits/s speed=0.0161x elapsed=0:00:21.79    \nframe=   24 fps=1.1 q=38.0 size=       0KiB time=00:00:00.36 bitrate=   1.0kbits/s speed=0.0164x elapsed=0:00:22.30    \nframe=   25 fps=1.1 q=32.7 size=       0KiB time=00:00:00.38 bitrate=   0.9kbits/s speed=0.0168x elapsed=0:00:22.84    \nframe=   26 fps=1.1 q=35.1 size=       0KiB time=00:00:00.40 bitrate=   0.9kbits/s speed=0.0171x elapsed=0:00:23.35    \nframe=   26 fps=1.1 q=35.1 size=       0KiB time=00:00:00.40 bitrate=   0.9kbits/s speed=0.0168x elapsed=0:00:23.87    \nframe=   26 fps=1.1 q=35.1 size=       0KiB time=00:00:00.40 bitrate=   0.9kbits/s speed=0.0164x elapsed=0:00:24.39    \nframe=   26 fps=1.0 q=35.1 size=       0KiB time=00:00:00.40 bitrate=   0.9kbits/s speed=0.0161x elapsed=0:00:24.91    \nframe=   26 fps=1.0 q=35.1 size=       0KiB time=00:00:00.40 bitrate=   0.9kbits/s speed=0.0157x elapsed=0:00:25.42    \nframe=   26 fps=1.0 q=35.1 size=       0KiB time=00:00:00.40 bitrate=   0.9kbits/s speed=0.0154x elapsed=0:00:25.95    \nframe=   26 fps=1.0 q=35.1 size=       0KiB time=00:00:00.40 bitrate=   0.9kbits/s speed=0.0151x elapsed=0:00:26.48    \nframe=   26 fps=1.0 q=35.1 size=       0KiB time=00:00:00.40 bitrate=   0.9kbits/s speed=0.0148x elapsed=0:00:27.01    \nframe=   27 fps=1.0 q=37.1 size=       0KiB time=00:00:00.41 bitrate=   0.8kbits/s speed=0.0151x elapsed=0:00:27.54    \nframe=   28 fps=1.0 q=36.5 size=       0KiB time=00:00:00.43 bitrate=   0.8kbits/s speed=0.0154x elapsed=0:00:28.06    \nframe=   28 fps=1.0 q=36.5 size=       0KiB time=00:00:00.43 bitrate=   0.8kbits/s speed=0.0152x elapsed=0:00:28.56    \nframe=   29 fps=1.0 q=32.2 size=       0KiB time=00:00:00.45 bitrate=   0.8kbits/s speed=0.0155x elapsed=0:00:29.10    \nframe=   29 fps=1.0 q=32.2 size=       0KiB time=00:00:00.45 bitrate=   0.8kbits/s speed=0.0152x elapsed=0:00:29.65    \nframe=   29 fps=1.0 q=32.2 size=       0KiB time=00:00:00.45 bitrate=   0.8kbits/s speed=0.0149x elapsed=0:00:30.19    \nframe=   29 fps=0.9 q=32.2 size=       0KiB time=00:00:00.45 bitrate=   0.8kbits/s speed=0.0147x elapsed=0:00:30.71    \nframe=   29 fps=0.9 q=32.2 size=       0KiB time=00:00:00.45 bitrate=   0.8kbits/s speed=0.0144x elapsed=0:00:31.23    \nframe=   29 fps=0.9 q=32.2 size=       0KiB time=00:00:00.45 bitrate=   0.8kbits/s speed=0.0142x elapsed=0:00:31.77    \nframe=   29 fps=0.9 q=32.2 size=       0KiB time=00:00:00.45 bitrate=   0.8kbits/s speed=0.0139x elapsed=0:00:32.30    \nframe=   29 fps=0.9 q=32.2 size=       0KiB time=00:00:00.45 bitrate=   0.8kbits/s speed=0.0137x elapsed=0:00:32.82    \nframe=   30 fps=0.9 q=34.9 size=       0KiB time=00:00:00.46 bitrate=   0.8kbits/s speed=0.014x elapsed=0:00:33.35    \nframe=   30 fps=0.9 q=34.9 size=       0KiB time=00:00:00.46 bitrate=   0.8kbits/s speed=0.0138x elapsed=0:00:33.90    \nframe=   31 fps=0.9 q=35.7 size=       0KiB time=00:00:00.48 bitrate=   0.7kbits/s speed=0.014x elapsed=0:00:34.41    \nframe=   32 fps=0.9 q=32.0 size=       0KiB time=00:00:00.50 bitrate=   0.7kbits/s speed=0.0143x elapsed=0:00:34.93    \nframe=   33 fps=0.9 q=34.4 size=       0KiB time=00:00:00.51 bitrate=   0.7kbits/s speed=0.0146x elapsed=0:00:35.44    \nframe=   33 fps=0.9 q=34.4 size=       0KiB time=00:00:00.51 bitrate=   0.7kbits/s speed=0.0144x elapsed=0:00:35.97    \nframe=   33 fps=0.9 q=34.4 size=       0KiB time=00:00:00.51 bitrate=   0.7kbits/s speed=0.0142x elapsed=0:00:36.49    \nframe=   33 fps=0.9 q=34.4 size=       0KiB time=00:00:00.51 bitrate=   0.7kbits/s speed=0.014x elapsed=0:00:37.01    \nframe=   33 fps=0.9 q=34.4 size=       0KiB time=00:00:00.51 bitrate=   0.7kbits/s speed=0.0138x elapsed=0:00:37.51    \nframe=   33 fps=0.9 q=34.4 size=       0KiB time=00:00:00.51 bitrate=   0.7kbits/s speed=0.0136x elapsed=0:00:38.04    \nframe=   33 fps=0.9 q=34.4 size=       0KiB time=00:00:00.51 bitrate=   0.7kbits/s speed=0.0134x elapsed=0:00:38.59    \nframe=   33 fps=0.8 q=34.4 size=       0KiB time=00:00:00.51 bitrate=   0.7kbits/s speed=0.0132x elapsed=0:00:39.11    \nframe=   34 fps=0.9 q=35.7 size=       0KiB time=00:00:00.53 bitrate=   0.7kbits/s speed=0.0135x elapsed=0:00:39.63    \nframe=   35 fps=0.9 q=35.1 size=       0KiB time=00:00:00.55 bitrate=   0.6kbits/s speed=0.0137x elapsed=0:00:40.15    \nframe=   35 fps=0.9 q=35.1 size=       0KiB time=00:00:00.55 bitrate=   0.6kbits/s speed=0.0135x elapsed=0:00:40.68    \nframe=   35 fps=0.8 q=35.1 size=       0KiB time=00:00:00.55 bitrate=   0.6kbits/s speed=0.0133x elapsed=0:00:41.24    \nframe=   36 fps=0.9 q=31.3 size=       0KiB time=00:00:00.56 bitrate=   0.6kbits/s speed=0.0135x elapsed=0:00:41.83    \nframe=   36 fps=0.8 q=31.3 size=       0KiB time=00:00:00.56 bitrate=   0.6kbits/s speed=0.0134x elapsed=0:00:42.36    \nframe=   36 fps=0.8 q=31.3 size=       0KiB time=00:00:00.56 bitrate=   0.6kbits/s speed=0.0132x elapsed=0:00:42.88    \nframe=   36 fps=0.8 q=31.3 size=       0KiB time=00:00:00.56 bitrate=   0.6kbits/s speed=0.013x elapsed=0:00:43.42    \nframe=   36 fps=0.8 q=31.3 size=       0KiB time=00:00:00.56 bitrate=   0.6kbits/s speed=0.0129x elapsed=0:00:43.97    \nframe=   36 fps=0.8 q=31.3 size=       0KiB time=00:00:00.56 bitrate=   0.6kbits/s speed=0.0127x elapsed=0:00:44.54    \nframe=   36 fps=0.8 q=31.3 size=       0KiB time=00:00:00.56 bitrate=   0.6kbits/s speed=0.0126x elapsed=0:00:45.12    \nframe=   36 fps=0.8 q=31.3 size=       0KiB time=00:00:00.56 bitrate=   0.6kbits/s speed=0.0124x elapsed=0:00:45.65    \nframe=   36 fps=0.8 q=31.3 size=       0KiB time=00:00:00.56 bitrate=   0.6kbits/s speed=0.0123x elapsed=0:00:46.17    \nframe=   36 fps=0.8 q=31.3 size=       0KiB time=00:00:00.56 bitrate=   0.6kbits/s speed=0.0121x elapsed=0:00:46.69    \nframe=   37 fps=0.8 q=31.8 size=       0KiB time=00:00:00.58 bitrate=   0.6kbits/s speed=0.0124x elapsed=0:00:47.21    \nframe=   37 fps=0.8 q=31.8 size=       0KiB time=00:00:00.58 bitrate=   0.6kbits/s speed=0.0122x elapsed=0:00:47.74    \nframe=   38 fps=0.8 q=34.6 size=       0KiB time=00:00:00.60 bitrate=   0.6kbits/s speed=0.0124x elapsed=0:00:48.25    \nframe=   39 fps=0.8 q=31.4 size=       0KiB time=00:00:00.61 bitrate=   0.6kbits/s speed=0.0126x elapsed=0:00:48.77    \nframe=   39 fps=0.8 q=31.4 size=       0KiB time=00:00:00.61 bitrate=   0.6kbits/s speed=0.0125x elapsed=0:00:49.28    \nframe=   40 fps=0.8 q=32.9 size=       0KiB time=00:00:00.63 bitrate=   0.6kbits/s speed=0.0127x elapsed=0:00:49.81    \nframe=   40 fps=0.8 q=32.9 size=       0KiB time=00:00:00.63 bitrate=   0.6kbits/s speed=0.0126x elapsed=0:00:50.33    \nframe=   40 fps=0.8 q=32.9 size=       0KiB time=00:00:00.63 bitrate=   0.6kbits/s speed=0.0125x elapsed=0:00:50.86    \nframe=   40 fps=0.8 q=32.9 size=       0KiB time=00:00:00.63 bitrate=   0.6kbits/s speed=0.0123x elapsed=0:00:51.39    \nframe=   40 fps=0.8 q=32.9 size=       0KiB time=00:00:00.63 bitrate=   0.6kbits/s speed=0.0122x elapsed=0:00:51.91    \nframe=   41 fps=0.8 q=34.0 size=       0KiB time=00:00:00.65 bitrate=   0.5kbits/s speed=0.0124x elapsed=0:00:52.47    \nframe=   41 fps=0.8 q=34.0 size=       0KiB time=00:00:00.65 bitrate=   0.5kbits/s speed=0.0123x elapsed=0:00:52.99    \nframe=   41 fps=0.8 q=34.0 size=       0KiB time=00:00:00.65 bitrate=   0.5kbits/s speed=0.0121x elapsed=0:00:53.53    \nframe=   42 fps=0.8 q=34.2 size=       0KiB time=00:00:00.66 bitrate=   0.5kbits/s speed=0.0123x elapsed=0:00:54.04    \nframe=   42 fps=0.8 q=34.2 size=       0KiB time=00:00:00.66 bitrate=   0.5kbits/s speed=0.0122x elapsed=0:00:54.57    \nframe=   43 fps=0.8 q=31.3 size=       0KiB time=00:00:00.68 bitrate=   0.5kbits/s speed=0.0124x elapsed=0:00:55.09    \nframe=   43 fps=0.8 q=31.3 size=       0KiB time=00:00:00.68 bitrate=   0.5kbits/s speed=0.0123x elapsed=0:00:55.64    \nframe=   43 fps=0.8 q=31.3 size=       0KiB time=00:00:00.68 bitrate=   0.5kbits/s speed=0.0122x elapsed=0:00:56.17    \nframe=   43 fps=0.8 q=31.3 size=       0KiB time=00:00:00.68 bitrate=   0.5kbits/s speed=0.0121x elapsed=0:00:56.70    \nframe=   43 fps=0.8 q=31.3 size=       0KiB time=00:00:00.68 bitrate=   0.5kbits/s speed=0.0119x elapsed=0:00:57.22    \nframe=   43 fps=0.7 q=31.3 size=       0KiB time=00:00:00.68 bitrate=   0.5kbits/s speed=0.0118x elapsed=0:00:57.74    \nframe=   43 fps=0.7 q=31.3 size=       0KiB time=00:00:00.68 bitrate=   0.5kbits/s speed=0.0117x elapsed=0:00:58.31    \nframe=   43 fps=0.7 q=31.3 size=       0KiB time=00:00:00.68 bitrate=   0.5kbits/s speed=0.0116x elapsed=0:00:58.87    \nframe=   43 fps=0.7 q=31.3 size=       0KiB time=00:00:00.68 bitrate=   0.5kbits/s speed=0.0115x elapsed=0:00:59.40    \nframe=   43 fps=0.7 q=31.3 size=       0KiB time=00:00:00.68 bitrate=   0.5kbits/s speed=0.0114x elapsed=0:00:59.92    \nframe=   44 fps=0.7 q=32.1 size=       0KiB time=00:00:00.70 bitrate=   0.5kbits/s speed=0.0116x elapsed=0:01:00.46    \nframe=   45 fps=0.7 q=36.4 size=       0KiB time=00:00:00.71 bitrate=   0.5kbits/s speed=0.0118x elapsed=0:01:00.98    \nframe=   46 fps=0.7 q=31.6 size=       0KiB time=00:00:00.73 bitrate=   0.5kbits/s speed=0.0119x elapsed=0:01:01.49    \nframe=   46 fps=0.7 q=31.6 size=       0KiB time=00:00:00.73 bitrate=   0.5kbits/s speed=0.0118x elapsed=0:01:02.00    \nframe=   46 fps=0.7 q=31.6 size=       0KiB time=00:00:00.73 bitrate=   0.5kbits/s speed=0.0117x elapsed=0:01:02.53    \nframe=   46 fps=0.7 q=31.6 size=       0KiB time=00:00:00.73 bitrate=   0.5kbits/s speed=0.0116x elapsed=0:01:03.07    \nframe=   46 fps=0.7 q=31.6 size=       0KiB time=00:00:00.73 bitrate=   0.5kbits/s speed=0.0115x elapsed=0:01:03.58    \nframe=   46 fps=0.7 q=31.6 size=       0KiB time=00:00:00.73 bitrate=   0.5kbits/s speed=0.0114x elapsed=0:01:04.11    \nframe=   46 fps=0.7 q=31.6 size=       0KiB time=00:00:00.73 bitrate=   0.5kbits/s speed=0.0113x elapsed=0:01:04.65    \nframe=   47 fps=0.7 q=32.4 size=       0KiB time=00:00:00.75 bitrate=   0.5kbits/s speed=0.0115x elapsed=0:01:05.20    \nframe=   47 fps=0.7 q=32.4 size=       0KiB time=00:00:00.75 bitrate=   0.5kbits/s speed=0.0114x elapsed=0:01:05.72    \nframe=   47 fps=0.7 q=32.4 size=       0KiB time=00:00:00.75 bitrate=   0.5kbits/s speed=0.0113x elapsed=0:01:06.27    \nframe=   47 fps=0.7 q=32.4 size=       0KiB time=00:00:00.75 bitrate=   0.5kbits/s speed=0.0112x elapsed=0:01:06.81    \nframe=   47 fps=0.7 q=32.4 size=       0KiB time=00:00:00.75 bitrate=   0.5kbits/s speed=0.0111x elapsed=0:01:07.34    \nframe=   48 fps=0.7 q=35.0 size=       0KiB time=00:00:00.76 bitrate=   0.5kbits/s speed=0.0113x elapsed=0:01:07.86    \nframe=   48 fps=0.7 q=35.0 size=       0KiB time=00:00:00.76 bitrate=   0.5kbits/s speed=0.0112x elapsed=0:01:08.40    \nframe=   48 fps=0.7 q=35.0 size=       0KiB time=00:00:00.76 bitrate=   0.5kbits/s speed=0.0111x elapsed=0:01:08.92    \nframe=   50 fps=0.7 q=33.0 size=       0KiB time=00:00:00.80 bitrate=   0.4kbits/s speed=0.0115x elapsed=0:01:09.45    \nframe=   50 fps=0.7 q=33.0 size=       0KiB time=00:00:00.80 bitrate=   0.4kbits/s speed=0.0114x elapsed=0:01:09.96    \nframe=   50 fps=0.7 q=33.0 size=       0KiB time=00:00:00.80 bitrate=   0.4kbits/s speed=0.0114x elapsed=0:01:10.48    \nframe=   50 fps=0.7 q=33.0 size=       0KiB time=00:00:00.80 bitrate=   0.4kbits/s speed=0.0113x elapsed=0:01:11.00    \nframe=   50 fps=0.7 q=33.0 size=       0KiB time=00:00:00.80 bitrate=   0.4kbits/s speed=0.0112x elapsed=0:01:11.50    \nframe=   51 fps=0.7 q=37.5 size=       0KiB time=00:00:00.81 bitrate=   0.4kbits/s speed=0.0113x elapsed=0:01:12.02    \nframe=   51 fps=0.7 q=37.5 size=       0KiB time=00:00:00.81 bitrate=   0.4kbits/s speed=0.0113x elapsed=0:01:12.53    \nframe=   52 fps=0.7 q=37.8 size=       0KiB time=00:00:00.83 bitrate=   0.4kbits/s speed=0.0114x elapsed=0:01:13.05    \nframe=   53 fps=0.7 q=32.2 size=       0KiB time=00:00:00.85 bitrate=   0.4kbits/s speed=0.0116x elapsed=0:01:13.57    \nframe=   55 fps=0.7 q=37.8 size=       0KiB time=00:00:00.88 bitrate=   0.4kbits/s speed=0.0119x elapsed=0:01:14.09    \nframe=   55 fps=0.7 q=37.8 size=       0KiB time=00:00:00.88 bitrate=   0.4kbits/s speed=0.0118x elapsed=0:01:14.59    \nframe=   55 fps=0.7 q=37.8 size=       0KiB time=00:00:00.88 bitrate=   0.4kbits/s speed=0.0118x elapsed=0:01:15.12    \nframe=   56 fps=0.7 q=38.6 size=       0KiB time=00:00:00.90 bitrate=   0.4kbits/s speed=0.0119x elapsed=0:01:15.64    \nframe=   57 fps=0.7 q=38.4 size=       0KiB time=00:00:00.91 bitrate=   0.4kbits/s speed=0.012x elapsed=0:01:16.15    \nframe=   59 fps=0.8 q=38.1 size=       0KiB time=00:00:00.95 bitrate=   0.4kbits/s speed=0.0124x elapsed=0:01:16.67    \nframe=   60 fps=0.8 q=39.3 size=       0KiB time=00:00:00.96 bitrate=   0.4kbits/s speed=0.0125x elapsed=0:01:17.17    \nframe=   60 fps=0.8 q=39.3 size=       0KiB time=00:00:00.96 bitrate=   0.4kbits/s speed=0.0124x elapsed=0:01:17.69    \nframe=   60 fps=0.8 q=39.3 size=       0KiB time=00:00:00.96 bitrate=   0.4kbits/s speed=0.0124x elapsed=0:01:18.21    \nframe=   61 fps=0.8 q=38.9 size=       0KiB time=00:00:00.98 bitrate=   0.4kbits/s speed=0.0125x elapsed=0:01:18.72    \nframe=   61 fps=0.8 q=38.9 size=       0KiB time=00:00:00.98 bitrate=   0.4kbits/s speed=0.0124x elapsed=0:01:19.24    \nframe=   62 fps=0.8 q=40.8 size=       0KiB time=00:00:01.00 bitrate=   0.4kbits/s speed=0.0125x elapsed=0:01:19.76    \nframe=   64 fps=0.8 q=36.0 size=       0KiB time=00:00:01.03 bitrate=   0.3kbits/s speed=0.0129x elapsed=0:01:20.27    \nframe=   64 fps=0.8 q=36.0 size=       0KiB time=00:00:01.03 bitrate=   0.3kbits/s speed=0.0128x elapsed=0:01:20.79    \nframe=   66 fps=0.8 q=41.0 size=       0KiB time=00:00:01.06 bitrate=   0.3kbits/s speed=0.0131x elapsed=0:01:21.31    \nframe=   66 fps=0.8 q=41.0 size=       0KiB time=00:00:01.06 bitrate=   0.3kbits/s speed=0.013x elapsed=0:01:21.81    \nframe=   66 fps=0.8 q=41.0 size=       0KiB time=00:00:01.06 bitrate=   0.3kbits/s speed=0.013x elapsed=0:01:22.34    \nframe=   66 fps=0.8 q=41.0 size=       0KiB time=00:00:01.06 bitrate=   0.3kbits/s speed=0.0129x elapsed=0:01:22.86    \nframe=   67 fps=0.8 q=34.7 size=       0KiB time=00:00:01.08 bitrate=   0.3kbits/s speed=0.013x elapsed=0:01:23.36    \nframe=   68 fps=0.8 q=40.8 size=       0KiB time=00:00:01.10 bitrate=   0.3kbits/s speed=0.0131x elapsed=0:01:23.88    \nframe=   70 fps=0.8 q=36.8 size=       0KiB time=00:00:01.13 bitrate=   0.3kbits/s speed=0.0134x elapsed=0:01:24.40    \nframe=   70 fps=0.8 q=36.8 size=       0KiB time=00:00:01.13 bitrate=   0.3kbits/s speed=0.0133x elapsed=0:01:24.91    \nframe=   71 fps=0.8 q=41.0 size=       0KiB time=00:00:01.15 bitrate=   0.3kbits/s speed=0.0135x elapsed=0:01:25.43    \nframe=   72 fps=0.8 q=40.9 size=       0KiB time=00:00:01.16 bitrate=   0.3kbits/s speed=0.0136x elapsed=0:01:25.95    \nframe=   72 fps=0.8 q=40.9 size=       0KiB time=00:00:01.16 bitrate=   0.3kbits/s speed=0.0135x elapsed=0:01:26.46    \nframe=   72 fps=0.8 q=40.9 size=       0KiB time=00:00:01.16 bitrate=   0.3kbits/s speed=0.0134x elapsed=0:01:26.98    \nframe=   72 fps=0.8 q=40.9 size=       0KiB time=00:00:01.16 bitrate=   0.3kbits/s speed=0.0133x elapsed=0:01:27.48    \nframe=   72 fps=0.8 q=40.9 size=       0KiB time=00:00:01.16 bitrate=   0.3kbits/s speed=0.0133x elapsed=0:01:28.00    \nframe=   74 fps=0.8 q=40.8 size=       0KiB time=00:00:01.20 bitrate=   0.3kbits/s speed=0.0136x elapsed=0:01:28.52    \nframe=   75 fps=0.8 q=32.7 size=       0KiB time=00:00:01.21 bitrate=   0.3kbits/s speed=0.0137x elapsed=0:01:29.04    \nframe=   76 fps=0.8 q=40.8 size=       0KiB time=00:00:01.23 bitrate=   0.3kbits/s speed=0.0138x elapsed=0:01:29.56    \nframe=   77 fps=0.9 q=40.9 size=       0KiB time=00:00:01.25 bitrate=   0.3kbits/s speed=0.0139x elapsed=0:01:30.07    \nframe=   77 fps=0.8 q=40.9 size=       0KiB time=00:00:01.25 bitrate=   0.3kbits/s speed=0.0138x elapsed=0:01:30.59    \nframe=   77 fps=0.8 q=40.9 size=       0KiB time=00:00:01.25 bitrate=   0.3kbits/s speed=0.0137x elapsed=0:01:31.09    \nframe=   79 fps=0.9 q=45.0 size=       0KiB time=00:00:01.28 bitrate=   0.3kbits/s speed=0.014x elapsed=0:01:31.62    \nframe=   81 fps=0.9 q=44.8 size=     256KiB time=00:00:01.31 bitrate=1593.0kbits/s speed=0.0143x elapsed=0:01:32.14    \nframe=   82 fps=0.9 q=45.0 size=     256KiB time=00:00:01.33 bitrate=1573.1kbits/s speed=0.0144x elapsed=0:01:32.64    \nframe=   83 fps=0.9 q=46.0 size=     256KiB time=00:00:01.35 bitrate=1553.7kbits/s speed=0.0145x elapsed=0:01:33.16    \nframe=   83 fps=0.9 q=46.0 size=     256KiB time=00:00:01.35 bitrate=1553.7kbits/s speed=0.0144x elapsed=0:01:33.68    \nframe=   83 fps=0.9 q=46.0 size=     256KiB time=00:00:01.35 bitrate=1553.7kbits/s speed=0.0143x elapsed=0:01:34.19    \nframe=   84 fps=0.9 q=41.1 size=     256KiB time=00:00:01.36 bitrate=1534.8kbits/s speed=0.0144x elapsed=0:01:34.71    \nframe=   85 fps=0.9 q=46.0 size=     256KiB time=00:00:01.38 bitrate=1516.3kbits/s speed=0.0145x elapsed=0:01:35.23    \nframe=   86 fps=0.9 q=38.6 size=     256KiB time=00:00:01.40 bitrate=1498.2kbits/s speed=0.0146x elapsed=0:01:35.74    \nframe=   87 fps=0.9 q=44.8 size=     256KiB time=00:00:01.41 bitrate=1480.6kbits/s speed=0.0147x elapsed=0:01:36.26    \nframe=   87 fps=0.9 q=44.8 size=     256KiB time=00:00:01.41 bitrate=1480.6kbits/s speed=0.0146x elapsed=0:01:36.79    \nframe=   87 fps=0.9 q=44.8 size=     256KiB time=00:00:01.41 bitrate=1480.6kbits/s speed=0.0146x elapsed=0:01:37.35    \nframe=   87 fps=0.9 q=44.8 size=     256KiB time=00:00:01.41 bitrate=1480.6kbits/s speed=0.0145x elapsed=0:01:37.87    \nframe=   88 fps=0.9 q=47.0 size=     256KiB time=00:00:01.43 bitrate=1463.4kbits/s speed=0.0146x elapsed=0:01:38.39    \nframe=   89 fps=0.9 q=45.9 size=     256KiB time=00:00:01.45 bitrate=1446.6kbits/s speed=0.0147x elapsed=0:01:38.91    \nframe=   89 fps=0.9 q=45.9 size=     256KiB time=00:00:01.45 bitrate=1446.6kbits/s speed=0.0146x elapsed=0:01:39.43    \nframe=   90 fps=0.9 q=35.6 size=     256KiB time=00:00:01.46 bitrate=1430.1kbits/s speed=0.0147x elapsed=0:01:39.94    \nframe=   90 fps=0.9 q=35.6 size=     256KiB time=00:00:01.46 bitrate=1430.1kbits/s speed=0.0146x elapsed=0:01:40.46    \nframe=   90 fps=0.9 q=35.6 size=     256KiB time=00:00:01.46 bitrate=1430.1kbits/s speed=0.0145x elapsed=0:01:40.97    \nframe=   90 fps=0.9 q=35.6 size=     256KiB time=00:00:01.46 bitrate=1430.1kbits/s speed=0.0144x elapsed=0:01:41.51    \nframe=   90 fps=0.9 q=35.6 size=     256KiB time=00:00:01.46 bitrate=1430.1kbits/s speed=0.0144x elapsed=0:01:42.04    \nframe=   90 fps=0.9 q=35.6 size=     256KiB time=00:00:01.46 bitrate=1430.1kbits/s speed=0.0143x elapsed=0:01:42.55    \nframe=   90 fps=0.9 q=35.6 size=     256KiB time=00:00:01.46 bitrate=1430.1kbits/s speed=0.0142x elapsed=0:01:43.07    \nframe=   90 fps=0.9 q=35.6 size=     256KiB time=00:00:01.46 bitrate=1430.1kbits/s speed=0.0142x elapsed=0:01:43.58    \nframe=   90 fps=0.9 q=35.6 size=     256KiB time=00:00:01.46 bitrate=1430.1kbits/s speed=0.0141x elapsed=0:01:44.13    \nframe=   91 fps=0.9 q=42.6 size=     256KiB time=00:00:01.48 bitrate=1414.0kbits/s speed=0.0142x elapsed=0:01:44.66    \nframe=   91 fps=0.9 q=42.6 size=     256KiB time=00:00:01.48 bitrate=1414.0kbits/s speed=0.0141x elapsed=0:01:45.20    \nframe=   92 fps=0.9 q=44.0 size=     256KiB time=00:00:01.50 bitrate=1398.3kbits/s speed=0.0142x elapsed=0:01:45.73    \nframe=   92 fps=0.9 q=44.0 size=     256KiB time=00:00:01.50 bitrate=1398.3kbits/s speed=0.0141x elapsed=0:01:46.24    \nframe=   92 fps=0.9 q=44.0 size=     256KiB time=00:00:01.50 bitrate=1398.3kbits/s speed=0.014x elapsed=0:01:46.76    \nframe=   92 fps=0.9 q=44.0 size=     256KiB time=00:00:01.50 bitrate=1398.3kbits/s speed=0.014x elapsed=0:01:47.27    \nframe=   92 fps=0.9 q=44.0 size=     256KiB time=00:00:01.50 bitrate=1398.3kbits/s speed=0.0139x elapsed=0:01:47.79    \nframe=   93 fps=0.9 q=35.0 size=     256KiB time=00:00:01.51 bitrate=1383.0kbits/s speed=0.014x elapsed=0:01:48.32    \nframe=   94 fps=0.9 q=43.0 size=     256KiB time=00:00:01.53 bitrate=1367.9kbits/s speed=0.0141x elapsed=0:01:48.83    \nframe=   94 fps=0.9 q=43.0 size=     256KiB time=00:00:01.53 bitrate=1367.9kbits/s speed=0.014x elapsed=0:01:49.36    \nframe=   96 fps=0.9 q=43.8 size=     256KiB time=00:00:01.56 bitrate=1338.8kbits/s speed=0.0143x elapsed=0:01:49.88    \nframe=   96 fps=0.9 q=43.8 size=     256KiB time=00:00:01.56 bitrate=1338.8kbits/s speed=0.0142x elapsed=0:01:50.42    \nframe=   96 fps=0.9 q=43.8 size=     256KiB time=00:00:01.56 bitrate=1338.8kbits/s speed=0.0141x elapsed=0:01:50.95    \nframe=   96 fps=0.9 q=43.8 size=     256KiB time=00:00:01.56 bitrate=1338.8kbits/s speed=0.0141x elapsed=0:01:51.50    \nframe=   96 fps=0.9 q=43.8 size=     256KiB time=00:00:01.56 bitrate=1338.8kbits/s speed=0.014x elapsed=0:01:52.03    \nframe=   96 fps=0.9 q=43.8 size=     256KiB time=00:00:01.56 bitrate=1338.8kbits/s speed=0.0139x elapsed=0:01:52.56    \nframe=   96 fps=0.8 q=43.8 size=     256KiB time=00:00:01.56 bitrate=1338.8kbits/s speed=0.0139x elapsed=0:01:53.11    \nframe=   96 fps=0.8 q=43.8 size=     256KiB time=00:00:01.56 bitrate=1338.8kbits/s speed=0.0138x elapsed=0:01:53.64    \nframe=   97 fps=0.8 q=41.6 size=     256KiB time=00:00:01.58 bitrate=1324.7kbits/s speed=0.0139x elapsed=0:01:54.15    \nframe=   97 fps=0.8 q=41.6 size=     256KiB time=00:00:01.58 bitrate=1324.7kbits/s speed=0.0138x elapsed=0:01:54.67    \nframe=   97 fps=0.8 q=41.6 size=     256KiB time=00:00:01.58 bitrate=1324.7kbits/s speed=0.0137x elapsed=0:01:55.19    \nframe=   98 fps=0.8 q=44.0 size=     256KiB time=00:00:01.60 bitrate=1310.9kbits/s speed=0.0138x elapsed=0:01:55.73    \nframe=   99 fps=0.9 q=37.8 size=     256KiB time=00:00:01.61 bitrate=1297.4kbits/s speed=0.0139x elapsed=0:01:56.26    \nframe=  100 fps=0.9 q=41.9 size=     256KiB time=00:00:01.63 bitrate=1284.2kbits/s speed=0.014x elapsed=0:01:56.78    \nframe=  100 fps=0.9 q=41.9 size=     256KiB time=00:00:01.63 bitrate=1284.2kbits/s speed=0.0139x elapsed=0:01:57.30    \nframe=  100 fps=0.8 q=41.9 size=     256KiB time=00:00:01.63 bitrate=1284.2kbits/s speed=0.0139x elapsed=0:01:57.82    \nframe=  100 fps=0.8 q=41.9 size=     256KiB time=00:00:01.63 bitrate=1284.2kbits/s speed=0.0138x elapsed=0:01:58.34    \nframe=  100 fps=0.8 q=41.9 size=     256KiB time=00:00:01.63 bitrate=1284.2kbits/s speed=0.0137x elapsed=0:01:58.86    \nframe=  100 fps=0.8 q=41.9 size=     256KiB time=00:00:01.63 bitrate=1284.2kbits/s speed=0.0137x elapsed=0:01:59.38    \nframe=  100 fps=0.8 q=41.9 size=     256KiB time=00:00:01.63 bitrate=1284.2kbits/s speed=0.0136x elapsed=0:01:59.89    \nframe=  101 fps=0.8 q=44.0 size=     256KiB time=00:00:01.65 bitrate=1271.2kbits/s speed=0.0137x elapsed=0:02:00.46    \nframe=  101 fps=0.8 q=44.0 size=     256KiB time=00:00:01.65 bitrate=1271.2kbits/s speed=0.0136x elapsed=0:02:01.00    \nframe=  101 fps=0.8 q=44.0 size=     256KiB time=00:00:01.65 bitrate=1271.2kbits/s speed=0.0136x elapsed=0:02:01.55    \nframe=  101 fps=0.8 q=44.0 size=     256KiB time=00:00:01.65 bitrate=1271.2kbits/s speed=0.0135x elapsed=0:02:02.11    \nframe=  101 fps=0.8 q=44.0 size=     256KiB time=00:00:01.65 bitrate=1271.2kbits/s speed=0.0135x elapsed=0:02:02.64    \nframe=  101 fps=0.8 q=44.0 size=     256KiB time=00:00:01.65 bitrate=1271.2kbits/s speed=0.0134x elapsed=0:02:03.16    \nframe=  101 fps=0.8 q=44.0 size=     256KiB time=00:00:01.65 bitrate=1271.2kbits/s speed=0.0133x elapsed=0:02:03.69    \nframe=  102 fps=0.8 q=44.0 size=     256KiB time=00:00:01.66 bitrate=1258.5kbits/s speed=0.0134x elapsed=0:02:04.24    \nframe=  102 fps=0.8 q=44.0 size=     256KiB time=00:00:01.66 bitrate=1258.5kbits/s speed=0.0134x elapsed=0:02:04.77    \nframe=  102 fps=0.8 q=44.0 size=     256KiB time=00:00:01.66 bitrate=1258.5kbits/s speed=0.0133x elapsed=0:02:05.31    \nframe=  102 fps=0.8 q=44.0 size=     256KiB time=00:00:01.66 bitrate=1258.5kbits/s speed=0.0132x elapsed=0:02:05.84    \nframe=  103 fps=0.8 q=35.8 size=     256KiB time=00:00:01.68 bitrate=1246.0kbits/s speed=0.0133x elapsed=0:02:06.37    \nframe=  103 fps=0.8 q=35.8 size=     256KiB time=00:00:01.68 bitrate=1246.0kbits/s speed=0.0133x elapsed=0:02:06.93    \nframe=  103 fps=0.8 q=35.8 size=     256KiB time=00:00:01.68 bitrate=1246.0kbits/s speed=0.0132x elapsed=0:02:07.47    \nframe=  104 fps=0.8 q=37.5 size=     256KiB time=00:00:01.70 bitrate=1233.8kbits/s speed=0.0133x elapsed=0:02:07.97    \nframe=  105 fps=0.8 q=43.7 size=     256KiB time=00:00:01.71 bitrate=1221.8kbits/s speed=0.0134x elapsed=0:02:08.50    \nframe=  105 fps=0.8 q=43.7 size=     256KiB time=00:00:01.71 bitrate=1221.8kbits/s speed=0.0133x elapsed=0:02:09.03    \nframe=  105 fps=0.8 q=43.7 size=     256KiB time=00:00:01.71 bitrate=1221.8kbits/s speed=0.0132x elapsed=0:02:09.56    \nframe=  105 fps=0.8 q=43.7 size=     256KiB time=00:00:01.71 bitrate=1221.8kbits/s speed=0.0132x elapsed=0:02:10.06    \nframe=  105 fps=0.8 q=43.7 size=     256KiB time=00:00:01.71 bitrate=1221.8kbits/s speed=0.0131x elapsed=0:02:10.60    \nframe=  106 fps=0.8 q=43.9 size=     256KiB time=00:00:01.73 bitrate=1210.1kbits/s speed=0.0132x elapsed=0:02:11.14    \nframe=  107 fps=0.8 q=42.9 size=     256KiB time=00:00:01.75 bitrate=1198.6kbits/s speed=0.0133x elapsed=0:02:11.66    \nframe=  107 fps=0.8 q=42.9 size=     256KiB time=00:00:01.75 bitrate=1198.6kbits/s speed=0.0132x elapsed=0:02:12.23    \nframe=  107 fps=0.8 q=42.9 size=     256KiB time=00:00:01.75 bitrate=1198.6kbits/s speed=0.0132x elapsed=0:02:12.77    \nframe=  108 fps=0.8 q=36.0 size=     256KiB time=00:00:01.76 bitrate=1187.3kbits/s speed=0.0133x elapsed=0:02:13.29    \nframe=  108 fps=0.8 q=36.0 size=     256KiB time=00:00:01.76 bitrate=1187.3kbits/s speed=0.0132x elapsed=0:02:13.82    \nframe=  109 fps=0.8 q=41.4 size=     256KiB time=00:00:01.78 bitrate=1176.2kbits/s speed=0.0133x elapsed=0:02:14.35    \nframe=  109 fps=0.8 q=41.4 size=     256KiB time=00:00:01.78 bitrate=1176.2kbits/s speed=0.0132x elapsed=0:02:14.87    \nframe=  109 fps=0.8 q=41.4 size=     256KiB time=00:00:01.78 bitrate=1176.2kbits/s speed=0.0132x elapsed=0:02:15.39    \nframe=  109 fps=0.8 q=41.4 size=     256KiB time=00:00:01.78 bitrate=1176.2kbits/s speed=0.0131x elapsed=0:02:15.91    \nframe=  109 fps=0.8 q=41.4 size=     256KiB time=00:00:01.78 bitrate=1176.2kbits/s speed=0.0131x elapsed=0:02:16.45    \nframe=  109 fps=0.8 q=41.4 size=     256KiB time=00:00:01.78 bitrate=1176.2kbits/s speed=0.013x elapsed=0:02:16.97    \nframe=  109 fps=0.8 q=41.4 size=     256KiB time=00:00:01.78 bitrate=1176.2kbits/s speed=0.013x elapsed=0:02:17.52    \nframe=  109 fps=0.8 q=41.4 size=     256KiB time=00:00:01.78 bitrate=1176.2kbits/s speed=0.0129x elapsed=0:02:18.07    \nframe=  109 fps=0.8 q=41.4 size=     256KiB time=00:00:01.78 bitrate=1176.2kbits/s speed=0.0129x elapsed=0:02:18.62    \nframe=  109 fps=0.8 q=41.4 size=     256KiB time=00:00:01.78 bitrate=1176.2kbits/s speed=0.0128x elapsed=0:02:19.14    \nframe=  109 fps=0.8 q=41.4 size=     256KiB time=00:00:01.78 bitrate=1176.2kbits/s speed=0.0128x elapsed=0:02:19.67    \nframe=  109 fps=0.8 q=41.4 size=     256KiB time=00:00:01.78 bitrate=1176.2kbits/s speed=0.0127x elapsed=0:02:20.20    \nframe=  109 fps=0.8 q=41.4 size=     256KiB time=00:00:01.78 bitrate=1176.2kbits/s speed=0.0127x elapsed=0:02:20.72    \nframe=  109 fps=0.8 q=41.4 size=     256KiB time=00:00:01.78 bitrate=1176.2kbits/s speed=0.0126x elapsed=0:02:21.24    \nframe=  110 fps=0.8 q=43.0 size=     256KiB time=00:00:01.80 bitrate=1165.3kbits/s speed=0.0127x elapsed=0:02:21.77    \nframe=  110 fps=0.8 q=43.0 size=     256KiB time=00:00:01.80 bitrate=1165.3kbits/s speed=0.0126x elapsed=0:02:22.31    \nframe=  110 fps=0.8 q=43.0 size=     256KiB time=00:00:01.80 bitrate=1165.3kbits/s speed=0.0126x elapsed=0:02:22.83    \nframe=  111 fps=0.8 q=43.0 size=     256KiB time=00:00:01.81 bitrate=1154.6kbits/s speed=0.0127x elapsed=0:02:23.35    \nframe=  111 fps=0.8 q=43.0 size=     256KiB time=00:00:01.81 bitrate=1154.6kbits/s speed=0.0126x elapsed=0:02:23.88    \nframe=  111 fps=0.8 q=43.0 size=     256KiB time=00:00:01.81 bitrate=1154.6kbits/s speed=0.0126x elapsed=0:02:24.41    \nframe=  113 fps=0.8 q=37.2 size=     256KiB time=00:00:01.85 bitrate=1133.8kbits/s speed=0.0128x elapsed=0:02:24.93    \nframe=  114 fps=0.8 q=42.8 size=     256KiB time=00:00:01.86 bitrate=1123.7kbits/s speed=0.0128x elapsed=0:02:25.45    \nframe=  114 fps=0.8 q=42.8 size=     256KiB time=00:00:01.86 bitrate=1123.7kbits/s speed=0.0128x elapsed=0:02:25.98    \nframe=  114 fps=0.8 q=42.8 size=     256KiB time=00:00:01.86 bitrate=1123.7kbits/s speed=0.0127x elapsed=0:02:26.50    \nframe=  114 fps=0.8 q=42.8 size=     256KiB time=00:00:01.86 bitrate=1123.7kbits/s speed=0.0127x elapsed=0:02:27.05    \nframe=  114 fps=0.8 q=42.8 size=     256KiB time=00:00:01.86 bitrate=1123.7kbits/s speed=0.0126x elapsed=0:02:27.59    \nframe=  114 fps=0.8 q=42.8 size=     256KiB time=00:00:01.86 bitrate=1123.7kbits/s speed=0.0126x elapsed=0:02:28.10    \nframe=  114 fps=0.8 q=42.8 size=     256KiB time=00:00:01.86 bitrate=1123.7kbits/s speed=0.0126x elapsed=0:02:28.67    \nframe=  114 fps=0.8 q=42.8 size=     256KiB time=00:00:01.86 bitrate=1123.7kbits/s speed=0.0125x elapsed=0:02:29.21    \nframe=  114 fps=0.8 q=42.8 size=     256KiB time=00:00:01.86 bitrate=1123.7kbits/s speed=0.0125x elapsed=0:02:29.77    \nframe=  114 fps=0.8 q=42.8 size=     256KiB time=00:00:01.86 bitrate=1123.7kbits/s speed=0.0124x elapsed=0:02:30.31    \nframe=  114 fps=0.8 q=42.8 size=     256KiB time=00:00:01.86 bitrate=1123.7kbits/s speed=0.0124x elapsed=0:02:30.85    \nframe=  115 fps=0.8 q=42.1 size=     256KiB time=00:00:01.88 bitrate=1113.7kbits/s speed=0.0124x elapsed=0:02:31.40    \nframe=  116 fps=0.8 q=43.0 size=     256KiB time=00:00:01.90 bitrate=1103.9kbits/s speed=0.0125x elapsed=0:02:31.92    \nframe=  116 fps=0.8 q=43.0 size=     256KiB time=00:00:01.90 bitrate=1103.9kbits/s speed=0.0125x elapsed=0:02:32.45    \nframe=  118 fps=0.8 q=40.1 size=     256KiB time=00:00:01.93 bitrate=1084.9kbits/s speed=0.0126x elapsed=0:02:32.95    \nframe=  118 fps=0.8 q=40.1 size=     256KiB time=00:00:01.93 bitrate=1084.9kbits/s speed=0.0126x elapsed=0:02:33.47    \nframe=  120 fps=0.8 q=42.8 size=     256KiB time=00:00:01.96 bitrate=1066.5kbits/s speed=0.0128x elapsed=0:02:34.00    \nframe=  121 fps=0.8 q=35.5 size=     256KiB time=00:00:01.98 bitrate=1057.6kbits/s speed=0.0128x elapsed=0:02:34.50    \nframe=  122 fps=0.8 q=42.0 size=     256KiB time=00:00:02.00 bitrate=1048.8kbits/s speed=0.0129x elapsed=0:02:35.02    \nframe=  124 fps=0.8 q=39.5 size=     256KiB time=00:00:02.03 bitrate=1031.6kbits/s speed=0.0131x elapsed=0:02:35.54    \nframe=  125 fps=0.8 q=42.0 size=     256KiB time=00:00:02.05 bitrate=1023.2kbits/s speed=0.0131x elapsed=0:02:36.06    \nframe=  126 fps=0.8 q=41.3 size=     256KiB time=00:00:02.06 bitrate=1014.9kbits/s speed=0.0132x elapsed=0:02:36.58    \nframe=  127 fps=0.8 q=34.1 size=     256KiB time=00:00:02.08 bitrate=1006.8kbits/s speed=0.0133x elapsed=0:02:37.08    \nframe=  129 fps=0.8 q=40.6 size=     256KiB time=00:00:02.11 bitrate= 990.9kbits/s speed=0.0134x elapsed=0:02:37.61    \nframe=  129 fps=0.8 q=40.6 size=     256KiB time=00:00:02.11 bitrate= 990.9kbits/s speed=0.0134x elapsed=0:02:38.11    \nframe=  130 fps=0.8 q=38.8 size=     256KiB time=00:00:02.13 bitrate= 983.2kbits/s speed=0.0134x elapsed=0:02:38.63    \nframe=  131 fps=0.8 q=38.8 size=     256KiB time=00:00:02.15 bitrate= 975.6kbits/s speed=0.0135x elapsed=0:02:39.14    \nframe=  132 fps=0.8 q=33.7 size=     256KiB time=00:00:02.16 bitrate= 968.1kbits/s speed=0.0136x elapsed=0:02:39.66    \nframe=  133 fps=0.8 q=36.0 size=     256KiB time=00:00:02.18 bitrate= 960.7kbits/s speed=0.0136x elapsed=0:02:40.18    \nframe=  134 fps=0.8 q=37.9 size=     256KiB time=00:00:02.20 bitrate= 953.4kbits/s speed=0.0137x elapsed=0:02:40.69    \nframe=  135 fps=0.8 q=38.8 size=     256KiB time=00:00:02.21 bitrate= 946.2kbits/s speed=0.0138x elapsed=0:02:41.21    \nframe=  136 fps=0.8 q=33.8 size=     256KiB time=00:00:02.23 bitrate= 939.2kbits/s speed=0.0138x elapsed=0:02:41.72    \nframe=  138 fps=0.9 q=37.2 size=     256KiB time=00:00:02.26 bitrate= 925.4kbits/s speed=0.014x elapsed=0:02:42.24    \nframe=  138 fps=0.8 q=37.2 size=     256KiB time=00:00:02.26 bitrate= 925.4kbits/s speed=0.0139x elapsed=0:02:42.77    \nframe=  139 fps=0.9 q=36.4 size=     256KiB time=00:00:02.28 bitrate= 918.6kbits/s speed=0.014x elapsed=0:02:43.28    \nframe=  140 fps=0.9 q=37.2 size=     256KiB time=00:00:02.30 bitrate= 912.0kbits/s speed=0.014x elapsed=0:02:43.80    \nframe=  141 fps=0.9 q=33.5 size=     256KiB time=00:00:02.31 bitrate= 905.4kbits/s speed=0.0141x elapsed=0:02:44.32    \nframe=  142 fps=0.9 q=37.6 size=     256KiB time=00:00:02.33 bitrate= 898.9kbits/s speed=0.0142x elapsed=0:02:44.83    \nframe=  142 fps=0.9 q=37.6 size=     256KiB time=00:00:02.33 bitrate= 898.9kbits/s speed=0.0141x elapsed=0:02:45.35    \nframe=  144 fps=0.9 q=37.8 size=     256KiB time=00:00:02.36 bitrate= 886.3kbits/s speed=0.0143x elapsed=0:02:45.87    \nframe=  145 fps=0.9 q=33.3 size=     256KiB time=00:00:02.38 bitrate= 880.1kbits/s speed=0.0143x elapsed=0:02:46.38    \nframe=  146 fps=0.9 q=34.8 size=     256KiB time=00:00:02.40 bitrate= 874.0kbits/s speed=0.0144x elapsed=0:02:46.90    \nframe=  147 fps=0.9 q=38.2 size=     256KiB time=00:00:02.41 bitrate= 867.9kbits/s speed=0.0144x elapsed=0:02:47.41    \nframe=  148 fps=0.9 q=38.6 size=     256KiB time=00:00:02.43 bitrate= 862.0kbits/s speed=0.0145x elapsed=0:02:47.93    \nframe=  149 fps=0.9 q=32.2 size=     256KiB time=00:00:02.45 bitrate= 856.1kbits/s speed=0.0145x elapsed=0:02:48.44    \nframe=  149 fps=0.9 q=32.2 size=     256KiB time=00:00:02.45 bitrate= 856.1kbits/s speed=0.0145x elapsed=0:02:48.96    \nframe=  150 fps=0.9 q=34.7 size=     256KiB time=00:00:02.46 bitrate= 850.3kbits/s speed=0.0146x elapsed=0:02:49.47    \nframe=  151 fps=0.9 q=36.9 size=     256KiB time=00:00:02.48 bitrate= 844.6kbits/s speed=0.0146x elapsed=0:02:49.99    \nframe=  152 fps=0.9 q=32.1 size=     256KiB time=00:00:02.50 bitrate= 839.0kbits/s speed=0.0147x elapsed=0:02:50.50    \nframe=  153 fps=0.9 q=33.4 size=     256KiB time=00:00:02.51 bitrate= 833.4kbits/s speed=0.0147x elapsed=0:02:51.02    \nframe=  153 fps=0.9 q=33.4 size=     256KiB time=00:00:02.51 bitrate= 833.4kbits/s speed=0.0147x elapsed=0:02:51.54    \nframe=  154 fps=0.9 q=37.1 size=     256KiB time=00:00:02.53 bitrate= 828.0kbits/s speed=0.0147x elapsed=0:02:52.05    \nframe=  155 fps=0.9 q=37.8 size=     256KiB time=00:00:02.55 bitrate= 822.6kbits/s speed=0.0148x elapsed=0:02:52.56    \nframe=  156 fps=0.9 q=32.0 size=     256KiB time=00:00:02.56 bitrate= 817.2kbits/s speed=0.0148x elapsed=0:02:53.09    \nframe=  157 fps=0.9 q=33.7 size=     256KiB time=00:00:02.58 bitrate= 811.9kbits/s speed=0.0149x elapsed=0:02:53.61    \nframe=  157 fps=0.9 q=33.7 size=     256KiB time=00:00:02.58 bitrate= 811.9kbits/s speed=0.0148x elapsed=0:02:54.13    \nframe=  159 fps=0.9 q=37.3 size=     256KiB time=00:00:02.61 bitrate= 801.6kbits/s speed=0.015x elapsed=0:02:54.65    \nframe=  160 fps=0.9 q=32.2 size=     256KiB time=00:00:02.63 bitrate= 796.5kbits/s speed=0.015x elapsed=0:02:55.17    \nframe=  161 fps=0.9 q=33.9 size=     256KiB time=00:00:02.65 bitrate= 791.5kbits/s speed=0.0151x elapsed=0:02:55.68    \nframe=  161 fps=0.9 q=33.9 size=     256KiB time=00:00:02.65 bitrate= 791.5kbits/s speed=0.015x elapsed=0:02:56.20    \nframe=  162 fps=0.9 q=37.3 size=     256KiB time=00:00:02.66 bitrate= 786.6kbits/s speed=0.0151x elapsed=0:02:56.71    \nframe=  164 fps=0.9 q=31.4 size=     256KiB time=00:00:02.70 bitrate= 776.9kbits/s speed=0.0152x elapsed=0:02:57.23    \nframe=  164 fps=0.9 q=31.4 size=     256KiB time=00:00:02.70 bitrate= 776.9kbits/s speed=0.0152x elapsed=0:02:57.75    \nframe=  164 fps=0.9 q=31.4 size=     256KiB time=00:00:02.70 bitrate= 776.9kbits/s speed=0.0151x elapsed=0:02:58.27    \nframe=  165 fps=0.9 q=34.1 size=     256KiB time=00:00:02.71 bitrate= 772.1kbits/s speed=0.0152x elapsed=0:02:58.79    \nframe=  166 fps=0.9 q=36.2 size=     256KiB time=00:00:02.73 bitrate= 767.4kbits/s speed=0.0152x elapsed=0:02:59.31    \nframe=  167 fps=0.9 q=30.5 size=     256KiB time=00:00:02.75 bitrate= 762.7kbits/s speed=0.0153x elapsed=0:02:59.82    \nframe=  168 fps=0.9 q=33.7 size=     256KiB time=00:00:02.76 bitrate= 758.1kbits/s speed=0.0153x elapsed=0:03:00.34    \nframe=  168 fps=0.9 q=33.7 size=     256KiB time=00:00:02.76 bitrate= 758.1kbits/s speed=0.0153x elapsed=0:03:00.84    \nframe=  169 fps=0.9 q=36.6 size=     256KiB time=00:00:02.78 bitrate= 753.6kbits/s speed=0.0153x elapsed=0:03:01.36    \nframe=  170 fps=0.9 q=34.4 size=     256KiB time=00:00:02.80 bitrate= 749.1kbits/s speed=0.0154x elapsed=0:03:01.88    \nframe=  171 fps=0.9 q=29.3 size=     256KiB time=00:00:02.81 bitrate= 744.7kbits/s speed=0.0154x elapsed=0:03:02.40    \nframe=  172 fps=0.9 q=32.4 size=     256KiB time=00:00:02.83 bitrate= 740.3kbits/s speed=0.0155x elapsed=0:03:02.91    \nframe=  172 fps=0.9 q=32.4 size=     256KiB time=00:00:02.83 bitrate= 740.3kbits/s speed=0.0154x elapsed=0:03:03.43    \nframe=  172 fps=0.9 q=32.4 size=     256KiB time=00:00:02.83 bitrate= 740.3kbits/s speed=0.0154x elapsed=0:03:03.95    \nframe=  173 fps=0.9 q=35.4 size=     256KiB time=00:00:02.85 bitrate= 736.0kbits/s speed=0.0155x elapsed=0:03:04.45    \nframe=  174 fps=0.9 q=35.6 size=     256KiB time=00:00:02.86 bitrate= 731.7kbits/s speed=0.0155x elapsed=0:03:04.97    \nframe=  175 fps=0.9 q=29.3 size=     256KiB time=00:00:02.88 bitrate= 727.5kbits/s speed=0.0155x elapsed=0:03:05.49    \nframe=  176 fps=0.9 q=32.6 size=     256KiB time=00:00:02.90 bitrate= 723.3kbits/s speed=0.0156x elapsed=0:03:06.01    \nframe=  176 fps=0.9 q=32.6 size=     256KiB time=00:00:02.90 bitrate= 723.3kbits/s speed=0.0155x elapsed=0:03:06.52    \nframe=  176 fps=0.9 q=32.6 size=     256KiB time=00:00:02.90 bitrate= 723.3kbits/s speed=0.0155x elapsed=0:03:07.04    \nframe=  177 fps=0.9 q=35.6 size=     256KiB time=00:00:02.91 bitrate= 719.1kbits/s speed=0.0156x elapsed=0:03:07.56    \nframe=  177 fps=0.9 q=35.6 size=     256KiB time=00:00:02.91 bitrate= 719.1kbits/s speed=0.0155x elapsed=0:03:08.07    \nframe=  178 fps=0.9 q=35.6 size=     256KiB time=00:00:02.93 bitrate= 715.1kbits/s speed=0.0156x elapsed=0:03:08.58    \nframe=  179 fps=0.9 q=29.7 size=     256KiB time=00:00:02.95 bitrate= 711.0kbits/s speed=0.0156x elapsed=0:03:09.10    \nframe=  181 fps=1.0 q=34.9 size=     256KiB time=00:00:02.98 bitrate= 703.1kbits/s speed=0.0157x elapsed=0:03:09.62    \nframe=  181 fps=1.0 q=34.9 size=     256KiB time=00:00:02.98 bitrate= 703.1kbits/s speed=0.0157x elapsed=0:03:10.13    \nframe=  181 fps=0.9 q=34.9 size=     256KiB time=00:00:02.98 bitrate= 703.1kbits/s speed=0.0156x elapsed=0:03:10.65    \nframe=  182 fps=1.0 q=34.9 size=     256KiB time=00:00:03.00 bitrate= 699.2kbits/s speed=0.0157x elapsed=0:03:11.17    \nframe=  183 fps=1.0 q=34.8 size=     512KiB time=00:00:03.01 bitrate=1390.5kbits/s speed=0.0157x elapsed=0:03:11.67    \nframe=  185 fps=1.0 q=32.3 size=     512KiB time=00:00:03.05 bitrate=1375.3kbits/s speed=0.0159x elapsed=0:03:12.20    \nframe=  185 fps=1.0 q=32.3 size=     512KiB time=00:00:03.05 bitrate=1375.3kbits/s speed=0.0158x elapsed=0:03:12.71    \nframe=  185 fps=1.0 q=32.3 size=     512KiB time=00:00:03.05 bitrate=1375.3kbits/s speed=0.0158x elapsed=0:03:13.22    \nframe=  186 fps=1.0 q=35.8 size=     512KiB time=00:00:03.06 bitrate=1367.8kbits/s speed=0.0158x elapsed=0:03:13.74    \nframe=  187 fps=1.0 q=36.6 size=     512KiB time=00:00:03.08 bitrate=1360.4kbits/s speed=0.0159x elapsed=0:03:14.26    \nframe=  187 fps=1.0 q=36.6 size=     512KiB time=00:00:03.08 bitrate=1360.4kbits/s speed=0.0158x elapsed=0:03:14.77    \nframe=  188 fps=1.0 q=32.0 size=     512KiB time=00:00:03.10 bitrate=1353.1kbits/s speed=0.0159x elapsed=0:03:15.28    \nframe=  190 fps=1.0 q=36.0 size=     512KiB time=00:00:03.13 bitrate=1338.7kbits/s speed=0.016x elapsed=0:03:15.80    \nframe=  190 fps=1.0 q=36.0 size=     512KiB time=00:00:03.13 bitrate=1338.7kbits/s speed=0.016x elapsed=0:03:16.32    \nframe=  190 fps=1.0 q=36.0 size=     512KiB time=00:00:03.13 bitrate=1338.7kbits/s speed=0.0159x elapsed=0:03:16.84    \nframe=  191 fps=1.0 q=35.8 size=     512KiB time=00:00:03.15 bitrate=1331.6kbits/s speed=0.016x elapsed=0:03:17.35    \nframe=  192 fps=1.0 q=37.9 size=     512KiB time=00:00:03.16 bitrate=1324.6kbits/s speed=0.016x elapsed=0:03:17.87    \nframe=  193 fps=1.0 q=32.2 size=     512KiB time=00:00:03.18 bitrate=1317.7kbits/s speed=0.016x elapsed=0:03:18.37    \nframe=  194 fps=1.0 q=32.2 size=     512KiB time=00:00:03.20 bitrate=1310.8kbits/s speed=0.0161x elapsed=0:03:18.89    \nframe=  195 fps=1.0 q=38.8 size=     512KiB time=00:00:03.21 bitrate=1304.0kbits/s speed=0.0161x elapsed=0:03:19.42    \nframe=  195 fps=1.0 q=38.8 size=     512KiB time=00:00:03.21 bitrate=1304.0kbits/s speed=0.0161x elapsed=0:03:19.93    \nframe=  196 fps=1.0 q=37.9 size=     512KiB time=00:00:03.23 bitrate=1297.3kbits/s speed=0.0161x elapsed=0:03:20.44    \nframe=  197 fps=1.0 q=39.0 size=     512KiB time=00:00:03.25 bitrate=1290.7kbits/s speed=0.0162x elapsed=0:03:20.97    \nframe=  199 fps=1.0 q=32.9 size=     512KiB time=00:00:03.28 bitrate=1277.6kbits/s speed=0.0163x elapsed=0:03:21.48    \nframe=  200 fps=1.0 q=39.0 size=     512KiB time=00:00:03.30 bitrate=1271.1kbits/s speed=0.0163x elapsed=0:03:22.01    \nframe=  200 fps=1.0 q=39.0 size=     512KiB time=00:00:03.30 bitrate=1271.1kbits/s speed=0.0163x elapsed=0:03:22.53    \nframe=  201 fps=1.0 q=38.7 size=     512KiB time=00:00:03.31 bitrate=1264.7kbits/s speed=0.0163x elapsed=0:03:23.05    \nframe=  201 fps=1.0 q=38.7 size=     512KiB time=00:00:03.31 bitrate=1264.7kbits/s speed=0.0163x elapsed=0:03:23.57    \nframe=  202 fps=1.0 q=38.9 size=     512KiB time=00:00:03.33 bitrate=1258.4kbits/s speed=0.0163x elapsed=0:03:24.08    \nframe=  202 fps=1.0 q=38.9 size=     512KiB time=00:00:03.33 bitrate=1258.4kbits/s speed=0.0163x elapsed=0:03:24.62    \nframe=  203 fps=1.0 q=33.8 size=     512KiB time=00:00:03.35 bitrate=1252.1kbits/s speed=0.0163x elapsed=0:03:25.17    \nframe=  203 fps=1.0 q=33.8 size=     512KiB time=00:00:03.35 bitrate=1252.1kbits/s speed=0.0163x elapsed=0:03:25.70    \nframe=  204 fps=1.0 q=35.6 size=     512KiB time=00:00:03.36 bitrate=1245.9kbits/s speed=0.0163x elapsed=0:03:26.21    \nframe=  205 fps=1.0 q=38.8 size=     512KiB time=00:00:03.38 bitrate=1239.8kbits/s speed=0.0164x elapsed=0:03:26.79    \nframe=  205 fps=1.0 q=38.8 size=     512KiB time=00:00:03.38 bitrate=1239.8kbits/s speed=0.0163x elapsed=0:03:27.31    \nframe=  206 fps=1.0 q=37.5 size=     512KiB time=00:00:03.40 bitrate=1233.7kbits/s speed=0.0164x elapsed=0:03:27.81    \nframe=  206 fps=1.0 q=37.5 size=     512KiB time=00:00:03.40 bitrate=1233.7kbits/s speed=0.0163x elapsed=0:03:28.33    \nframe=  206 fps=1.0 q=37.5 size=     512KiB time=00:00:03.40 bitrate=1233.7kbits/s speed=0.0163x elapsed=0:03:28.87    \nframe=  206 fps=1.0 q=37.5 size=     512KiB time=00:00:03.40 bitrate=1233.7kbits/s speed=0.0162x elapsed=0:03:29.40    \nframe=  206 fps=1.0 q=37.5 size=     512KiB time=00:00:03.40 bitrate=1233.7kbits/s speed=0.0162x elapsed=0:03:29.91    \nframe=  206 fps=1.0 q=37.5 size=     512KiB time=00:00:03.40 bitrate=1233.7kbits/s speed=0.0162x elapsed=0:03:30.44    \nframe=  206 fps=1.0 q=37.5 size=     512KiB time=00:00:03.40 bitrate=1233.7kbits/s speed=0.0161x elapsed=0:03:30.96    \nframe=  207 fps=1.0 q=38.9 size=     512KiB time=00:00:03.41 bitrate=1227.7kbits/s speed=0.0162x elapsed=0:03:31.48    \nframe=  207 fps=1.0 q=38.9 size=     512KiB time=00:00:03.41 bitrate=1227.7kbits/s speed=0.0161x elapsed=0:03:31.99    \nframe=  207 fps=1.0 q=38.9 size=     512KiB time=00:00:03.41 bitrate=1227.7kbits/s speed=0.0161x elapsed=0:03:32.54    \nframe=  207 fps=1.0 q=38.9 size=     512KiB time=00:00:03.41 bitrate=1227.7kbits/s speed=0.016x elapsed=0:03:33.09    \nframe=  208 fps=1.0 q=33.3 size=     512KiB time=00:00:03.43 bitrate=1221.7kbits/s speed=0.0161x elapsed=0:03:33.62    \nframe=  209 fps=1.0 q=35.5 size=     512KiB time=00:00:03.45 bitrate=1215.8kbits/s speed=0.0161x elapsed=0:03:34.15    \nframe=  209 fps=1.0 q=35.5 size=     512KiB time=00:00:03.45 bitrate=1215.8kbits/s speed=0.0161x elapsed=0:03:34.68    \nframe=  209 fps=1.0 q=35.5 size=     512KiB time=00:00:03.45 bitrate=1215.8kbits/s speed=0.016x elapsed=0:03:35.21    \nframe=  210 fps=1.0 q=39.9 size=     512KiB time=00:00:03.46 bitrate=1210.0kbits/s speed=0.0161x elapsed=0:03:35.73    \nframe=  210 fps=1.0 q=39.9 size=     512KiB time=00:00:03.46 bitrate=1210.0kbits/s speed=0.016x elapsed=0:03:36.24    \nframe=  210 fps=1.0 q=39.9 size=     512KiB time=00:00:03.46 bitrate=1210.0kbits/s speed=0.016x elapsed=0:03:36.76    \nframe=  210 fps=1.0 q=39.9 size=     512KiB time=00:00:03.46 bitrate=1210.0kbits/s speed=0.016x elapsed=0:03:37.28    \nframe=  210 fps=1.0 q=39.9 size=     512KiB time=00:00:03.46 bitrate=1210.0kbits/s speed=0.0159x elapsed=0:03:37.78    \nframe=  210 fps=1.0 q=39.9 size=     512KiB time=00:00:03.46 bitrate=1210.0kbits/s speed=0.0159x elapsed=0:03:38.31    \nframe=  210 fps=1.0 q=39.9 size=     512KiB time=00:00:03.46 bitrate=1210.0kbits/s speed=0.0158x elapsed=0:03:38.81    \nframe=  211 fps=1.0 q=39.8 size=     512KiB time=00:00:03.48 bitrate=1204.2kbits/s speed=0.0159x elapsed=0:03:39.33    \nframe=  211 fps=1.0 q=39.8 size=     512KiB time=00:00:03.48 bitrate=1204.2kbits/s speed=0.0158x elapsed=0:03:39.85    \nframe=  211 fps=1.0 q=39.8 size=     512KiB time=00:00:03.48 bitrate=1204.2kbits/s speed=0.0158x elapsed=0:03:40.38    \nframe=  212 fps=1.0 q=33.2 size=     512KiB time=00:00:03.50 bitrate=1198.5kbits/s speed=0.0158x elapsed=0:03:40.89    \nframe=  212 fps=1.0 q=33.2 size=     512KiB time=00:00:03.50 bitrate=1198.5kbits/s speed=0.0158x elapsed=0:03:41.42    \nframe=  212 fps=1.0 q=33.2 size=     512KiB time=00:00:03.50 bitrate=1198.5kbits/s speed=0.0158x elapsed=0:03:41.94    \nframe=  213 fps=1.0 q=36.4 size=     512KiB time=00:00:03.51 bitrate=1192.8kbits/s speed=0.0158x elapsed=0:03:42.45    \nframe=  214 fps=1.0 q=39.8 size=     512KiB time=00:00:03.53 bitrate=1187.2kbits/s speed=0.0158x elapsed=0:03:42.98    \nframe=  214 fps=1.0 q=39.8 size=     512KiB time=00:00:03.53 bitrate=1187.2kbits/s speed=0.0158x elapsed=0:03:43.50    \nframe=  214 fps=1.0 q=39.8 size=     512KiB time=00:00:03.53 bitrate=1187.2kbits/s speed=0.0158x elapsed=0:03:44.02    \nframe=  214 fps=1.0 q=39.8 size=     512KiB time=00:00:03.53 bitrate=1187.2kbits/s speed=0.0157x elapsed=0:03:44.54    \nframe=  214 fps=1.0 q=39.8 size=     512KiB time=00:00:03.53 bitrate=1187.2kbits/s speed=0.0157x elapsed=0:03:45.05    \nframe=  215 fps=1.0 q=39.7 size=     512KiB time=00:00:03.55 bitrate=1181.6kbits/s speed=0.0157x elapsed=0:03:45.58    \nframe=  215 fps=1.0 q=39.7 size=     512KiB time=00:00:03.55 bitrate=1181.6kbits/s speed=0.0157x elapsed=0:03:46.11    \nframe=  215 fps=0.9 q=39.7 size=     512KiB time=00:00:03.55 bitrate=1181.6kbits/s speed=0.0157x elapsed=0:03:46.63    \nframe=  216 fps=1.0 q=40.0 size=     512KiB time=00:00:03.56 bitrate=1176.1kbits/s speed=0.0157x elapsed=0:03:47.16    \nframe=  216 fps=0.9 q=40.0 size=     512KiB time=00:00:03.56 bitrate=1176.1kbits/s speed=0.0157x elapsed=0:03:47.69    \nframe=  217 fps=1.0 q=33.4 size=     512KiB time=00:00:03.58 bitrate=1170.6kbits/s speed=0.0157x elapsed=0:03:48.21    \nframe=  218 fps=1.0 q=38.7 size=     512KiB time=00:00:03.60 bitrate=1165.2kbits/s speed=0.0157x elapsed=0:03:48.73    \nframe=  218 fps=1.0 q=38.7 size=     512KiB time=00:00:03.60 bitrate=1165.2kbits/s speed=0.0157x elapsed=0:03:49.33    \nframe=  218 fps=0.9 q=38.7 size=     512KiB time=00:00:03.60 bitrate=1165.2kbits/s speed=0.0157x elapsed=0:03:49.92    \nframe=  218 fps=0.9 q=38.7 size=     512KiB time=00:00:03.60 bitrate=1165.2kbits/s speed=0.0156x elapsed=0:03:50.47    \nframe=  218 fps=0.9 q=38.7 size=     512KiB time=00:00:03.60 bitrate=1165.2kbits/s speed=0.0156x elapsed=0:03:50.98    \nframe=  219 fps=0.9 q=39.8 size=     512KiB time=00:00:03.61 bitrate=1159.8kbits/s speed=0.0156x elapsed=0:03:51.51    \nframe=  219 fps=0.9 q=39.8 size=     512KiB time=00:00:03.61 bitrate=1159.8kbits/s speed=0.0156x elapsed=0:03:52.06    \nframe=  219 fps=0.9 q=39.8 size=     512KiB time=00:00:03.61 bitrate=1159.8kbits/s speed=0.0155x elapsed=0:03:52.65    \nframe=  219 fps=0.9 q=39.8 size=     512KiB time=00:00:03.61 bitrate=1159.8kbits/s speed=0.0155x elapsed=0:03:53.19    \nframe=  219 fps=0.9 q=39.8 size=     512KiB time=00:00:03.61 bitrate=1159.8kbits/s speed=0.0155x elapsed=0:03:53.74    \nframe=  219 fps=0.9 q=39.8 size=     512KiB time=00:00:03.61 bitrate=1159.8kbits/s speed=0.0154x elapsed=0:03:54.29    \nframe=  220 fps=0.9 q=41.0 size=     512KiB time=00:00:03.63 bitrate=1154.5kbits/s speed=0.0155x elapsed=0:03:54.80    \nframe=  220 fps=0.9 q=41.0 size=     512KiB time=00:00:03.63 bitrate=1154.5kbits/s speed=0.0154x elapsed=0:03:55.34    \nframe=  220 fps=0.9 q=41.0 size=     512KiB time=00:00:03.63 bitrate=1154.5kbits/s speed=0.0154x elapsed=0:03:55.88    \nframe=  221 fps=0.9 q=33.9 size=     512KiB time=00:00:03.65 bitrate=1149.2kbits/s speed=0.0154x elapsed=0:03:56.40    \nframe=  222 fps=0.9 q=39.3 size=     512KiB time=00:00:03.66 bitrate=1144.0kbits/s speed=0.0155x elapsed=0:03:56.93    \nframe=  222 fps=0.9 q=39.3 size=     512KiB time=00:00:03.66 bitrate=1144.0kbits/s speed=0.0154x elapsed=0:03:57.46    \nframe=  222 fps=0.9 q=39.3 size=     512KiB time=00:00:03.66 bitrate=1144.0kbits/s speed=0.0154x elapsed=0:03:57.99    \nframe=  222 fps=0.9 q=39.3 size=     512KiB time=00:00:03.66 bitrate=1144.0kbits/s speed=0.0154x elapsed=0:03:58.52    \nframe=  222 fps=0.9 q=39.3 size=     512KiB time=00:00:03.66 bitrate=1144.0kbits/s speed=0.0153x elapsed=0:03:59.04    \nframe=  222 fps=0.9 q=39.3 size=     512KiB time=00:00:03.66 bitrate=1144.0kbits/s speed=0.0153x elapsed=0:03:59.57    \nframe=  222 fps=0.9 q=39.3 size=     512KiB time=00:00:03.66 bitrate=1144.0kbits/s speed=0.0153x elapsed=0:04:00.13    \nframe=  223 fps=0.9 q=41.0 size=     512KiB time=00:00:03.68 bitrate=1138.8kbits/s speed=0.0153x elapsed=0:04:00.66    \nframe=  223 fps=0.9 q=41.0 size=     512KiB time=00:00:03.68 bitrate=1138.8kbits/s speed=0.0153x elapsed=0:04:01.20    \nframe=  223 fps=0.9 q=41.0 size=     512KiB time=00:00:03.68 bitrate=1138.8kbits/s speed=0.0152x elapsed=0:04:01.72    \nframe=  224 fps=0.9 q=40.9 size=     512KiB time=00:00:03.70 bitrate=1133.7kbits/s speed=0.0153x elapsed=0:04:02.24    \nframe=  224 fps=0.9 q=40.9 size=     512KiB time=00:00:03.70 bitrate=1133.7kbits/s speed=0.0152x elapsed=0:04:02.75    \nframe=  224 fps=0.9 q=40.9 size=     512KiB time=00:00:03.70 bitrate=1133.7kbits/s speed=0.0152x elapsed=0:04:03.32    \nframe=  225 fps=0.9 q=34.0 size=     512KiB time=00:00:03.71 bitrate=1128.6kbits/s speed=0.0152x elapsed=0:04:03.89    \nframe=  225 fps=0.9 q=34.0 size=     512KiB time=00:00:03.71 bitrate=1128.6kbits/s speed=0.0152x elapsed=0:04:04.45    \nframe=  225 fps=0.9 q=34.0 size=     512KiB time=00:00:03.71 bitrate=1128.6kbits/s speed=0.0152x elapsed=0:04:05.01    \nframe=  225 fps=0.9 q=34.0 size=     512KiB time=00:00:03.71 bitrate=1128.6kbits/s speed=0.0151x elapsed=0:04:05.53    \nframe=  225 fps=0.9 q=34.0 size=     512KiB time=00:00:03.71 bitrate=1128.6kbits/s speed=0.0151x elapsed=0:04:06.05    \nframe=  226 fps=0.9 q=36.8 size=     512KiB time=00:00:03.73 bitrate=1123.6kbits/s speed=0.0151x elapsed=0:04:06.58    \nframe=  227 fps=0.9 q=40.3 size=     512KiB time=00:00:03.75 bitrate=1118.6kbits/s speed=0.0152x elapsed=0:04:07.10    \nframe=  227 fps=0.9 q=40.3 size=     512KiB time=00:00:03.75 bitrate=1118.6kbits/s speed=0.0151x elapsed=0:04:07.64    \nframe=  227 fps=0.9 q=40.3 size=     512KiB time=00:00:03.75 bitrate=1118.6kbits/s speed=0.0151x elapsed=0:04:08.15    \nframe=  227 fps=0.9 q=40.3 size=     512KiB time=00:00:03.75 bitrate=1118.6kbits/s speed=0.0151x elapsed=0:04:08.69    \nframe=  227 fps=0.9 q=40.3 size=     512KiB time=00:00:03.75 bitrate=1118.6kbits/s speed=0.015x elapsed=0:04:09.24    \nframe=  227 fps=0.9 q=40.3 size=     512KiB time=00:00:03.75 bitrate=1118.6kbits/s speed=0.015x elapsed=0:04:09.80    \nframe=  227 fps=0.9 q=40.3 size=     512KiB time=00:00:03.75 bitrate=1118.6kbits/s speed=0.015x elapsed=0:04:10.32    \nframe=  228 fps=0.9 q=40.9 size=     512KiB time=00:00:03.76 bitrate=1113.6kbits/s speed=0.015x elapsed=0:04:10.84    \nframe=  229 fps=0.9 q=40.9 size=     512KiB time=00:00:03.78 bitrate=1108.7kbits/s speed=0.0151x elapsed=0:04:11.36    \nframe=  229 fps=0.9 q=40.9 size=     512KiB time=00:00:03.78 bitrate=1108.7kbits/s speed=0.015x elapsed=0:04:11.90    \nframe=  230 fps=0.9 q=33.4 size=     512KiB time=00:00:03.80 bitrate=1103.9kbits/s speed=0.0151x elapsed=0:04:12.41    \nframe=  231 fps=0.9 q=39.7 size=     512KiB time=00:00:03.81 bitrate=1099.0kbits/s speed=0.0151x elapsed=0:04:12.93    \nframe=  232 fps=0.9 q=40.3 size=     512KiB time=00:00:03.83 bitrate=1094.3kbits/s speed=0.0151x elapsed=0:04:13.46    \nframe=  232 fps=0.9 q=40.3 size=     512KiB time=00:00:03.83 bitrate=1094.3kbits/s speed=0.0151x elapsed=0:04:13.97    \nframe=  233 fps=0.9 q=42.0 size=     512KiB time=00:00:03.83 bitrate=1094.3kbits/s speed=0.0151x elapsed=0:04:14.50    \nframe=  234 fps=0.9 q=41.0 size=     512KiB time=00:00:03.86 bitrate=1084.8kbits/s speed=0.0152x elapsed=0:04:15.02    \nframe=  234 fps=0.9 q=41.0 size=     512KiB time=00:00:03.86 bitrate=1084.8kbits/s speed=0.0151x elapsed=0:04:15.53    \nframe=  234 fps=0.9 q=41.0 size=     512KiB time=00:00:03.86 bitrate=1084.8kbits/s speed=0.0151x elapsed=0:04:16.07    \nframe=  235 fps=0.9 q=34.0 size=     512KiB time=00:00:03.88 bitrate=1080.2kbits/s speed=0.0151x elapsed=0:04:16.61    \nframe=  235 fps=0.9 q=34.0 size=     512KiB time=00:00:03.88 bitrate=1080.2kbits/s speed=0.0151x elapsed=0:04:17.16    \nframe=  236 fps=0.9 q=38.9 size=     512KiB time=00:00:03.88 bitrate=1080.2kbits/s speed=0.0151x elapsed=0:04:17.70    \nframe=  236 fps=0.9 q=38.9 size=     512KiB time=00:00:03.90 bitrate=1075.6kbits/s speed=0.0151x elapsed=0:04:18.26    \nframe=  236 fps=0.9 q=38.9 size=     512KiB time=00:00:03.90 bitrate=1075.6kbits/s speed=0.0151x elapsed=0:04:18.79    \nframe=  236 fps=0.9 q=38.9 size=     512KiB time=00:00:03.90 bitrate=1075.6kbits/s speed=0.015x elapsed=0:04:19.34    \nframe=  236 fps=0.9 q=38.9 size=     512KiB time=00:00:03.90 bitrate=1075.6kbits/s speed=0.015x elapsed=0:04:19.88    \nframe=  237 fps=0.9 q=40.9 size=     512KiB time=00:00:03.91 bitrate=1071.0kbits/s speed=0.015x elapsed=0:04:20.41    \nframe=  237 fps=0.9 q=40.9 size=     512KiB time=00:00:03.91 bitrate=1071.0kbits/s speed=0.015x elapsed=0:04:20.93    \nframe=  237 fps=0.9 q=40.9 size=     512KiB time=00:00:03.91 bitrate=1071.0kbits/s speed=0.015x elapsed=0:04:21.46    \nframe=  238 fps=0.9 q=40.8 size=     512KiB time=00:00:03.93 bitrate=1066.4kbits/s speed=0.015x elapsed=0:04:21.97    \nframe=  238 fps=0.9 q=40.8 size=     512KiB time=00:00:03.93 bitrate=1066.4kbits/s speed=0.015x elapsed=0:04:22.48    \nframe=  239 fps=0.9 q=33.4 size=     512KiB time=00:00:03.95 bitrate=1061.9kbits/s speed=0.015x elapsed=0:04:23.01    \nframe=  241 fps=0.9 q=40.5 size=     512KiB time=00:00:03.98 bitrate=1053.1kbits/s speed=0.0151x elapsed=0:04:23.53    \nframe=  242 fps=0.9 q=40.9 size=     512KiB time=00:00:04.00 bitrate=1048.7kbits/s speed=0.0151x elapsed=0:04:24.03    \nframe=  243 fps=0.9 q=41.0 size=     512KiB time=00:00:04.01 bitrate=1044.3kbits/s speed=0.0152x elapsed=0:04:24.55    \nframe=  245 fps=0.9 q=37.8 size=     512KiB time=00:00:04.05 bitrate=1035.7kbits/s speed=0.0153x elapsed=0:04:25.08    \nframe=  245 fps=0.9 q=37.8 size=     512KiB time=00:00:04.05 bitrate=1035.7kbits/s speed=0.0152x elapsed=0:04:25.58    \nframe=  246 fps=0.9 q=39.6 size=     512KiB time=00:00:04.06 bitrate=1031.5kbits/s speed=0.0153x elapsed=0:04:26.10    \nframe=  247 fps=0.9 q=40.0 size=     512KiB time=00:00:04.08 bitrate=1027.3kbits/s speed=0.0153x elapsed=0:04:26.61    \nframe=  248 fps=0.9 q=32.0 size=     512KiB time=00:00:04.10 bitrate=1023.1kbits/s speed=0.0153x elapsed=0:04:27.13    \nframe=  249 fps=0.9 q=38.8 size=     512KiB time=00:00:04.11 bitrate=1018.9kbits/s speed=0.0154x elapsed=0:04:27.65    \nframe=  249 fps=0.9 q=38.8 size=     512KiB time=00:00:04.11 bitrate=1018.9kbits/s speed=0.0154x elapsed=0:04:28.17    \nframe=  251 fps=0.9 q=41.0 size=     512KiB time=00:00:04.15 bitrate=1010.8kbits/s speed=0.0154x elapsed=0:04:28.68    \nframe=  253 fps=0.9 q=37.8 size=     512KiB time=00:00:04.18 bitrate=1002.7kbits/s speed=0.0155x elapsed=0:04:29.21    \nframe=  253 fps=0.9 q=37.8 size=     512KiB time=00:00:04.18 bitrate=1002.7kbits/s speed=0.0155x elapsed=0:04:29.72    \nframe=  254 fps=0.9 q=39.9 size=     512KiB time=00:00:04.20 bitrate= 998.7kbits/s speed=0.0155x elapsed=0:04:30.24    \nframe=  256 fps=0.9 q=33.2 size=     512KiB time=00:00:04.23 bitrate= 990.9kbits/s speed=0.0156x elapsed=0:04:30.76    \nframe=  257 fps=0.9 q=37.5 size=     512KiB time=00:00:04.25 bitrate= 987.0kbits/s speed=0.0157x elapsed=0:04:31.26    \nframe=  258 fps=0.9 q=36.7 size=     512KiB time=00:00:04.26 bitrate= 983.1kbits/s speed=0.0157x elapsed=0:04:31.79    \nframe=  259 fps=1.0 q=32.9 size=     512KiB time=00:00:04.28 bitrate= 979.3kbits/s speed=0.0157x elapsed=0:04:32.31    \nframe=  259 fps=0.9 q=32.9 size=     512KiB time=00:00:04.28 bitrate= 979.3kbits/s speed=0.0157x elapsed=0:04:32.82    \nframe=  260 fps=1.0 q=34.2 size=     512KiB time=00:00:04.30 bitrate= 975.5kbits/s speed=0.0157x elapsed=0:04:33.34    \nframe=  261 fps=1.0 q=35.4 size=     512KiB time=00:00:04.31 bitrate= 971.7kbits/s speed=0.0158x elapsed=0:04:33.86    \nframe=  262 fps=1.0 q=33.0 size=     512KiB time=00:00:04.33 bitrate= 968.0kbits/s speed=0.0158x elapsed=0:04:34.36    \nframe=  264 fps=1.0 q=35.4 size=     768KiB time=00:00:04.36 bitrate=1440.9kbits/s speed=0.0159x elapsed=0:04:34.89    \nframe=  265 fps=1.0 q=32.8 size=     768KiB time=00:00:04.38 bitrate=1435.4kbits/s speed=0.0159x elapsed=0:04:35.39    \nframe=  265 fps=1.0 q=32.8 size=     768KiB time=00:00:04.38 bitrate=1435.4kbits/s speed=0.0159x elapsed=0:04:35.91    \nframe=  265 fps=1.0 q=32.8 size=     768KiB time=00:00:04.38 bitrate=1435.4kbits/s speed=0.0159x elapsed=0:04:36.43    \nframe=  267 fps=1.0 q=37.6 size=     768KiB time=00:00:04.41 bitrate=1424.6kbits/s speed=0.0159x elapsed=0:04:36.94    \nframe=  269 fps=1.0 q=36.8 size=     768KiB time=00:00:04.45 bitrate=1413.9kbits/s speed=0.016x elapsed=0:04:37.46    \nframe=  269 fps=1.0 q=36.8 size=     768KiB time=00:00:04.45 bitrate=1413.9kbits/s speed=0.016x elapsed=0:04:37.98    \nframe=  269 fps=1.0 q=36.8 size=     768KiB time=00:00:04.45 bitrate=1413.9kbits/s speed=0.016x elapsed=0:04:38.48    \nframe=  270 fps=1.0 q=38.0 size=     768KiB time=00:00:04.46 bitrate=1408.6kbits/s speed=0.016x elapsed=0:04:39.01    \nframe=  272 fps=1.0 q=32.7 size=     768KiB time=00:00:04.50 bitrate=1398.2kbits/s speed=0.0161x elapsed=0:04:39.53    \nframe=  272 fps=1.0 q=32.7 size=     768KiB time=00:00:04.50 bitrate=1398.2kbits/s speed=0.0161x elapsed=0:04:40.03    \nframe=  273 fps=1.0 q=35.4 size=     768KiB time=00:00:04.51 bitrate=1393.0kbits/s speed=0.0161x elapsed=0:04:40.55    \nframe=  273 fps=1.0 q=35.4 size=     768KiB time=00:00:04.51 bitrate=1393.0kbits/s speed=0.0161x elapsed=0:04:41.07    \nframe=  275 fps=1.0 q=37.3 size=     768KiB time=00:00:04.55 bitrate=1382.8kbits/s speed=0.0162x elapsed=0:04:41.58    \nframe=  276 fps=1.0 q=32.5 size=     768KiB time=00:00:04.56 bitrate=1377.8kbits/s speed=0.0162x elapsed=0:04:42.10    \nframe=  277 fps=1.0 q=35.1 size=     768KiB time=00:00:04.58 bitrate=1372.8kbits/s speed=0.0162x elapsed=0:04:42.62    \nframe=  278 fps=1.0 q=37.5 size=     768KiB time=00:00:04.60 bitrate=1367.8kbits/s speed=0.0162x elapsed=0:04:43.13    \nframe=  279 fps=1.0 q=35.6 size=     768KiB time=00:00:04.61 bitrate=1362.8kbits/s speed=0.0163x elapsed=0:04:43.65    \nframe=  281 fps=1.0 q=34.2 size=     768KiB time=00:00:04.65 bitrate=1353.1kbits/s speed=0.0164x elapsed=0:04:44.16    \nframe=  281 fps=1.0 q=34.2 size=     768KiB time=00:00:04.65 bitrate=1353.1kbits/s speed=0.0163x elapsed=0:04:44.69    \nframe=  282 fps=1.0 q=34.2 size=     768KiB time=00:00:04.66 bitrate=1348.2kbits/s speed=0.0164x elapsed=0:04:45.21    \nframe=  282 fps=1.0 q=34.2 size=     768KiB time=00:00:04.66 bitrate=1348.2kbits/s speed=0.0163x elapsed=0:04:45.72    \nframe=  282 fps=1.0 q=34.2 size=     768KiB time=00:00:04.66 bitrate=1348.2kbits/s speed=0.0163x elapsed=0:04:46.25    \nframe=  283 fps=1.0 q=33.9 size=     768KiB time=00:00:04.68 bitrate=1343.4kbits/s speed=0.0163x elapsed=0:04:46.77    \nframe=  283 fps=1.0 q=33.9 size=     768KiB time=00:00:04.68 bitrate=1343.4kbits/s speed=0.0163x elapsed=0:04:47.29    \nframe=  284 fps=1.0 q=34.3 size=     768KiB time=00:00:04.70 bitrate=1338.7kbits/s speed=0.0163x elapsed=0:04:47.83    \nframe=  284 fps=1.0 q=34.3 size=     768KiB time=00:00:04.70 bitrate=1338.7kbits/s speed=0.0163x elapsed=0:04:48.36    \nframe=  285 fps=1.0 q=32.1 size=     768KiB time=00:00:04.71 bitrate=1334.0kbits/s speed=0.0163x elapsed=0:04:48.88    \nframe=  285 fps=1.0 q=32.1 size=     768KiB time=00:00:04.71 bitrate=1334.0kbits/s speed=0.0163x elapsed=0:04:49.41    \nframe=  285 fps=1.0 q=32.1 size=     768KiB time=00:00:04.71 bitrate=1334.0kbits/s speed=0.0163x elapsed=0:04:49.93    \nframe=  286 fps=1.0 q=32.8 size=     768KiB time=00:00:04.73 bitrate=1329.3kbits/s speed=0.0163x elapsed=0:04:50.45    \nframe=  287 fps=1.0 q=34.1 size=     768KiB time=00:00:04.75 bitrate=1324.6kbits/s speed=0.0163x elapsed=0:04:50.95    \nframe=  287 fps=1.0 q=34.1 size=     768KiB time=00:00:04.75 bitrate=1324.6kbits/s speed=0.0163x elapsed=0:04:51.48    \nframe=  288 fps=1.0 q=31.3 size=     768KiB time=00:00:04.76 bitrate=1320.0kbits/s speed=0.0163x elapsed=0:04:52.03    \nframe=  289 fps=1.0 q=31.8 size=     768KiB time=00:00:04.78 bitrate=1315.4kbits/s speed=0.0164x elapsed=0:04:52.55    \nframe=  289 fps=1.0 q=31.8 size=     768KiB time=00:00:04.78 bitrate=1315.4kbits/s speed=0.0163x elapsed=0:04:53.07    \nframe=  289 fps=1.0 q=31.8 size=     768KiB time=00:00:04.78 bitrate=1315.4kbits/s speed=0.0163x elapsed=0:04:53.59    \nframe=  289 fps=1.0 q=31.8 size=     768KiB time=00:00:04.78 bitrate=1315.4kbits/s speed=0.0163x elapsed=0:04:54.13    \nframe=  289 fps=1.0 q=31.8 size=     768KiB time=00:00:04.78 bitrate=1315.4kbits/s speed=0.0162x elapsed=0:04:54.66    \nframe=  290 fps=1.0 q=33.3 size=     768KiB time=00:00:04.80 bitrate=1310.8kbits/s speed=0.0163x elapsed=0:04:55.17    \nframe=  291 fps=1.0 q=34.2 size=     768KiB time=00:00:04.81 bitrate=1306.3kbits/s speed=0.0163x elapsed=0:04:55.70    \nframe=  291 fps=1.0 q=34.2 size=     768KiB time=00:00:04.81 bitrate=1306.3kbits/s speed=0.0163x elapsed=0:04:56.22    \nframe=  292 fps=1.0 q=32.2 size=     768KiB time=00:00:04.81 bitrate=1306.3kbits/s speed=0.0162x elapsed=0:04:56.76    \nframe=  292 fps=1.0 q=32.2 size=     768KiB time=00:00:04.83 bitrate=1301.8kbits/s speed=0.0163x elapsed=0:04:57.30    \nframe=  292 fps=1.0 q=32.2 size=     768KiB time=00:00:04.83 bitrate=1301.8kbits/s speed=0.0162x elapsed=0:04:57.85    \nframe=  294 fps=1.0 q=34.3 size=     768KiB time=00:00:04.86 bitrate=1292.8kbits/s speed=0.0163x elapsed=0:04:58.37    \nframe=  294 fps=1.0 q=34.3 size=     768KiB time=00:00:04.86 bitrate=1292.8kbits/s speed=0.0163x elapsed=0:04:58.88    \nframe=  294 fps=1.0 q=34.3 size=     768KiB time=00:00:04.86 bitrate=1292.8kbits/s speed=0.0163x elapsed=0:04:59.40    \nframe=  295 fps=1.0 q=32.9 size=     768KiB time=00:00:04.88 bitrate=1288.4kbits/s speed=0.0163x elapsed=0:04:59.93    \nframe=  295 fps=1.0 q=32.9 size=     768KiB time=00:00:04.88 bitrate=1288.4kbits/s speed=0.0163x elapsed=0:05:00.44    \nframe=  296 fps=1.0 q=31.5 size=     768KiB time=00:00:04.90 bitrate=1284.0kbits/s speed=0.0163x elapsed=0:05:00.96    \nframe=  296 fps=1.0 q=31.5 size=     768KiB time=00:00:04.90 bitrate=1284.0kbits/s speed=0.0163x elapsed=0:05:01.48    \nframe=  297 fps=1.0 q=31.7 size=     768KiB time=00:00:04.91 bitrate=1279.7kbits/s speed=0.0163x elapsed=0:05:01.99    \n[mp4 @ 0000022f264b00c0] Starting second pass: moving the moov atom to the beginning of the file\n[out#0/mp4 @ 0000022f25edab40] video:858KiB audio:0KiB subtitle:0KiB other streams:0KiB global headers:2KiB muxing overhead: 0.810665%\nframe=  300 fps=1.0 q=34.6 Lsize=     865KiB time=00:00:04.96 bitrate=1426.6kbits/s speed=0.0164x elapsed=0:05:02.29    \nx265 [info]: frame I:      2, Avg QP:36.89  kb/s: 4461.60 \nx265 [info]: frame P:     76, Avg QP:33.65  kb/s: 4511.54 \nx265 [info]: frame B:    222, Avg QP:38.27  kb/s: 312.26  \nx265 [info]: Weighted P-Frames: Y:18.4% UV:18.4%\n\nencoded 300 frames in 302.06s (0.99 fps), 1403.74 kb/s, Avg QP:37.09\n",
  "seconds": 302.60581159591675,
  "probe_out": {}
}